<?xml version="1.0" encoding="UTF-8"?>
<svg id="Capa_2" data-name="Capa 2" xmlns="http://www.w3.org/2000/svg" viewBox="0 0 331 623.28">
  <defs>
    <style>
      .cls-1 {
        fill: none;
        stroke: #000;
        stroke-miterlimit: 10;
      }

      .cls-2 {
        fill: #fff;
      }

      .cls-2, .cls-3, .cls-4, .cls-5 {
        stroke-width: 0px;
      }

      .cls-3 {
        fill: #383533;
      }

      .cls-4 {
        fill: #44403d;
      }

      .cls-5 {
        fill: #565656;
      }
    </style>
  </defs>
  <g id="Icon">
    <g>
      <g>
        <path class="cls-2" d="m73.66,444.96l-22.4-27.05-.44-.78c-3.27-5.81-3.22-12.71.14-18.47s9.35-9.2,16.02-9.2h9.56c22.87-53.06,35.59-109.78,37.81-168.74-.9-4.81-5.12-8.35-10.07-8.35h-7.55c-7.9,0-14.63-5.11-16.77-12.72-2.13-7.6.96-15.47,7.69-19.57,7.3-4.45,14.92-8.28,22.81-11.47-9.57-6.85-17.86-15.51-24.25-25.48l.08-.09c-9.55-14.91-14.6-32.16-14.6-49.9C71.69,42.06,113.26.5,164.34.5c33.07,0,63.86,17.84,80.37,46.57l.21.37c1.33,2.34,2.58,4.78,3.7,7.23l.38.85c1.05,2.36,2.01,4.78,2.85,7.2.16.46.32.94.48,1.42.29.87.56,1.74.82,2.61.24.82.48,1.66.71,2.5.17.64.33,1.27.48,1.91.17.68.33,1.38.48,2.09l.08.36c.1.46.2.91.29,1.37.22,1.12.42,2.25.6,3.39.09.54.16,1.06.24,1.58.14.96.26,1.93.37,2.91l.03.28c.03.26.06.51.09.77.12,1.18.21,2.45.3,3.89.02.41.04.81.06,1.22.06,1.41.1,2.67.1,3.84v.34c0,28.91-13.29,55.48-35.23,72.77.06.02.12.04.18.06.85.3,1.68.6,2.51.91.84.31,1.67.63,2.51.95.62.24,1.23.48,1.84.73,1.29.52,2.58,1.06,3.85,1.61.26.11,1.16.52,1.16.52,1.06.47,2.1.95,3.14,1.44.47.22.93.44,1.39.66,1.34.65,2.67,1.31,3.99,2l.51.27c1.22.64,2.44,1.3,3.65,1.98l1.09.61c1.53.87,2.81,1.62,4.01,2.35,3.04,1.85,5.41,4.5,6.83,7.67.39.86.71,1.75.95,2.66.35,1.3.54,2.66.57,4.03.11,4.74-1.71,9.39-5,12.76-3.26,3.33-7.67,5.17-12.43,5.17h-18.11c-4.95,0-9.17,3.55-10.07,8.35,2.2,58.75,14.93,116.92,36.9,168.73h10.48c6.67,0,12.65,3.44,16.02,9.19,3.36,5.76,3.42,12.66.15,18.47l-.44.78-22.41,27.06H73.66Z"/>
        <path class="cls-1" d="m73.66,444.96l-22.4-27.05-.44-.78c-3.27-5.81-3.22-12.71.14-18.47s9.35-9.2,16.02-9.2h9.56c22.87-53.06,35.59-109.78,37.81-168.74-.9-4.81-5.12-8.35-10.07-8.35h-7.55c-7.9,0-14.63-5.11-16.77-12.72-2.13-7.6.96-15.47,7.69-19.57,7.3-4.45,14.92-8.28,22.81-11.47-9.57-6.85-17.86-15.51-24.25-25.48l.08-.09c-9.55-14.91-14.6-32.16-14.6-49.9C71.69,42.06,113.26.5,164.34.5c33.07,0,63.86,17.84,80.37,46.57l.21.37c1.33,2.34,2.58,4.78,3.7,7.23l.38.85c1.05,2.36,2.01,4.78,2.85,7.2.16.46.32.94.48,1.42.29.87.56,1.74.82,2.61.24.82.48,1.66.71,2.5.17.64.33,1.27.48,1.91.17.68.33,1.38.48,2.09l.08.36c.1.46.2.91.29,1.37.22,1.12.42,2.25.6,3.39.09.54.16,1.06.24,1.58.14.96.26,1.93.37,2.91l.03.28c.03.26.06.51.09.77.12,1.18.21,2.45.3,3.89.02.41.04.81.06,1.22.06,1.41.1,2.67.1,3.84v.34c0,28.91-13.29,55.48-35.23,72.77.06.02.12.04.18.06.85.3,1.68.6,2.51.91.84.31,1.67.63,2.51.95.62.24,1.23.48,1.84.73,1.29.52,2.58,1.06,3.85,1.61.26.11,1.16.52,1.16.52,1.06.47,2.1.95,3.14,1.44.47.22.93.44,1.39.66,1.34.65,2.67,1.31,3.99,2l.51.27c1.22.64,2.44,1.3,3.65,1.98l1.09.61c1.53.87,2.81,1.62,4.01,2.35,3.04,1.85,5.41,4.5,6.83,7.67.39.86.71,1.75.95,2.66.35,1.3.54,2.66.57,4.03.11,4.74-1.71,9.39-5,12.76-3.26,3.33-7.67,5.17-12.43,5.17h-18.11c-4.95,0-9.17,3.55-10.07,8.35,2.2,58.75,14.93,116.92,36.9,168.73h10.48c6.67,0,12.65,3.44,16.02,9.19,3.36,5.76,3.42,12.66.15,18.47l-.44.78-22.41,27.06H73.66Z"/>
      </g>
      <g>
        <path class="cls-2" d="m.5,622.78v-41.63c0-12.24,5.45-23.8,14.58-31.64-8.92-7.64-14.58-18.98-14.58-31.62,0-10.26,3.83-20.06,10.46-27.57l-2.19-1.88,12.65-6.95c24.53-13.49,39.39-29.01,48.17-50.33l2.55-6.19h184.41l2.55,6.19c8.78,21.32,23.63,36.85,48.17,50.33l12.67,6.96-2.19,1.87c6.61,7.51,10.45,17.3,10.45,27.57,0,12.02-5.2,22.97-13.52,30.61,9.64,7.63,15.83,19.43,15.83,32.65v41.63H.5Z"/>
        <path class="cls-1" d="m.5,622.78v-41.63c0-12.24,5.45-23.8,14.58-31.64-8.92-7.64-14.58-18.98-14.58-31.62,0-10.26,3.83-20.06,10.46-27.57l-2.19-1.88,12.65-6.95c24.53-13.49,39.39-29.01,48.17-50.33l2.55-6.19h184.41l2.55,6.19c8.78,21.32,23.63,36.85,48.17,50.33l12.67,6.96-2.19,1.87c6.61,7.51,10.45,17.3,10.45,27.57,0,12.02-5.2,22.97-13.52,30.61,9.64,7.63,15.83,19.43,15.83,32.65v41.63H.5Z"/>
      </g>
    </g>
    <g>
      <circle class="cls-4" cx="164.06" cy="93.07" r="82.65" transform="translate(-17.75 143.27) rotate(-45)"/>
      <path class="cls-4" d="m246.1,188.54c-22.37-13.64-48.65-21.5-76.77-21.5s-54.39,7.87-76.77,21.5c-6.39,3.9-3.62,13.75,3.87,13.75h145.79c7.49,0,10.26-9.85,3.87-13.75Z"/>
      <path class="cls-3" d="m261.43,399.37H66.7c-6.55,0-10.67,7.05-7.45,12.76l18.83,22.74h171.97l18.84-22.75c3.21-5.7-.91-12.75-7.45-12.75Z"/>
      <path class="cls-4" d="m317.91,517.8c0-11.68-6.33-21.88-15.74-27.36-.07-.04-.14-.07-.2-.11l.2-.17c-24.1-13.25-42.17-29.95-52.6-55.29H78.56c-10.43,25.35-28.5,42.04-52.6,55.29l.2.17c-.07.04-.14.07-.2.11-9.41,5.48-15.74,15.68-15.74,27.36,0,17.47,14.16,31.63,31.63,31.63h246.74v-.12c16.39-1.19,29.32-14.82,29.32-31.51Z"/>
      <path class="cls-3" d="m288.59,549.44H41.85c-5.79,0-11.22,1.56-15.89,4.27-9.41,5.48-15.74,15.68-15.74,27.36h310c0-17.47-14.16-31.63-31.63-31.63Z"/>
      <polygon class="cls-4" points="165.22 581.07 10.22 581.07 10.22 612.7 165.22 612.7 320.22 612.7 320.22 581.07 165.22 581.07"/>
      <g>
        <path class="cls-3" d="m207.29,22.64c8.23,12.86,13.01,28.14,13.01,44.54,0,45.67-37.02,82.69-82.69,82.69-15.86,0-30.68-4.47-43.26-12.21,14.7,22.94,40.41,38.15,69.68,38.15,45.67,0,82.69-37.02,82.69-82.69,0-29.81-15.77-55.93-39.43-70.48Z"/>
        <path class="cls-5" d="m95.82,100.78c0-40.31,32.68-72.99,72.99-72.99,23.56,0,44.51,11.17,57.86,28.5-12.6-21.88-36.23-36.61-63.29-36.61-40.31,0-72.99,32.68-72.99,72.99,0,16.75,5.65,32.18,15.13,44.49-6.17-10.71-9.7-23.13-9.7-36.38Z"/>
      </g>
      <path class="cls-3" d="m246.1,188.54c-15.12-9.22-32.03-15.78-50.08-19.08l-.68.19-91.35,32.64h138.24c7.49,0,10.26-9.85,3.87-13.75Z"/>
      <path class="cls-4" d="m244.39,399.37c-23.95-54.2-38.11-115.95-40.36-179.29,1.22-10.03,9.74-17.8,20.1-17.8h-120.13c10.36,0,18.88,7.77,20.1,17.8-2.29,63.84-16.79,124.53-41.31,179.29h161.6Z"/>
      <path class="cls-5" d="m26.52,516.64c0-10.54,5.84-19.72,14.45-24.48-12.37.47-22.25,10.62-22.25,23.1,0,10.77,7.37,19.8,17.34,22.38-5.84-5.13-9.54-12.62-9.54-21Z"/>
    </g>
  </g>
</svg>