<?xml version="1.0" encoding="UTF-8"?>
<svg id="Capa_2" data-name="Capa 2" xmlns="http://www.w3.org/2000/svg" viewBox="0 0 425 712.62">
  <defs>
    <style>
      .cls-1 {
        fill: none;
        stroke: #000;
        stroke-miterlimit: 10;
      }

      .cls-2 {
        fill: #fff;
      }

      .cls-2, .cls-3, .cls-4, .cls-5 {
        stroke-width: 0px;
      }

      .cls-3 {
        fill: #383533;
      }

      .cls-4 {
        fill: #44403d;
      }

      .cls-5 {
        fill: #565656;
      }
    </style>
  </defs>
  <g id="Icon">
    <g>
      <g>
        <path class="cls-2" d="m.5,712.12v-39.19c0-11.22,4.86-21.84,13.06-29.2-8.01-7.18-13.06-17.6-13.06-29.18,0-25.03,19.32-36.16,34.85-45.1,1.53-.88,3.05-1.75,4.54-2.64,6.93-4.1,13.71-8.65,20.15-13.52,6.41-4.85,12.61-10.12,18.44-15.67,2.97-2.83,5.91-5.79,8.74-8.81.76-.81,5.04-5.65,7.56-8.51l2.99-3.39h229.48l2.99,3.39c2.52,2.86,6.8,7.7,7.56,8.52,2.82,3.01,5.76,5.97,8.74,8.81,5.83,5.55,12.03,10.82,18.44,15.67,6.43,4.87,13.21,9.42,20.15,13.52,1.49.88,3.01,1.76,4.54,2.64,15.53,8.94,34.85,20.07,34.85,45.1,0,11.58-5.05,22.01-13.07,29.19,8.02,7.18,13.07,17.61,13.07,29.19v39.19H.5Z"/>
        <path class="cls-1" d="m.5,712.12v-39.19c0-11.22,4.86-21.84,13.06-29.2-8.01-7.18-13.06-17.6-13.06-29.18,0-25.03,19.32-36.16,34.85-45.1,1.53-.88,3.05-1.75,4.54-2.64,6.93-4.1,13.71-8.65,20.15-13.52,6.41-4.85,12.61-10.12,18.44-15.67,2.97-2.83,5.91-5.79,8.74-8.81.76-.81,5.04-5.65,7.56-8.51l2.99-3.39h229.48l2.99,3.39c2.52,2.86,6.8,7.7,7.56,8.52,2.82,3.01,5.76,5.97,8.74,8.81,5.83,5.55,12.03,10.82,18.44,15.67,6.43,4.87,13.21,9.42,20.15,13.52,1.49.88,3.01,1.76,4.54,2.64,15.53,8.94,34.85,20.07,34.85,45.1,0,11.58-5.05,22.01-13.07,29.19,8.02,7.18,13.07,17.61,13.07,29.19v39.19H.5Z"/>
      </g>
      <g>
        <path class="cls-2" d="m97.88,536.71l-20.95-25.3-.44-.78c-3.16-5.6-3.11-12.26.14-17.82,3.24-5.55,9.02-8.87,15.45-8.87h4.14c33.52-77.2,51.76-163.23,52.98-249.81-10.12-3.05-17.51-12.46-17.51-23.57,0-1.32.1-2.62.31-3.9h-9.67v-1.77c-11.77-4.21-20.23-15.48-20.23-28.63,0-7.17,2.5-13.77,6.67-18.98-4.45-4.01-7.85-9.23-9.6-15.23L64.9,25.16c-1.72-5.87-.6-12.05,3.07-16.95,3.67-4.9,9.28-7.71,15.4-7.71h29.8c8.49,0,16.08,5.69,18.47,13.83l14.83,50.62h8.44l-5.79-42.61c-.75-5.51.92-11.06,4.57-15.25,3.66-4.19,8.94-6.59,14.5-6.59h85.56c5.56,0,10.84,2.4,14.5,6.59s5.32,9.74,4.58,15.25l-5.79,42.61h8.44l14.83-50.62c2.38-8.15,9.98-13.83,18.47-13.83h29.8c10.06,0,18.49,7.85,19.2,17.88.16,2.29-.08,4.57-.73,6.78l-34.25,116.91c-1.72,5.87-5.01,10.99-9.32,14.97,4.21,5.54,6.39,12.48,6.39,19.23,0,14.13-10.01,26.6-23.8,29.66-1.02.23-2.05.4-3.07.52.22,1.34.34,2.71.34,4.11,0,10.37-6.66,19.64-16.23,23.13,1.13,87.44,18.95,173.64,51.73,250.24h4.1c6.43,0,12.2,3.31,15.45,8.87,3.24,5.55,3.3,12.21.14,17.81l-.44.78-20.95,25.31H97.88Z"/>
        <path class="cls-1" d="m97.88,536.71l-20.95-25.3-.44-.78c-3.16-5.6-3.11-12.26.14-17.82,3.24-5.55,9.02-8.87,15.45-8.87h4.14c33.52-77.2,51.76-163.23,52.98-249.81-10.12-3.05-17.51-12.46-17.51-23.57,0-1.32.1-2.62.31-3.9h-9.67v-1.77c-11.77-4.21-20.23-15.48-20.23-28.63,0-7.17,2.5-13.77,6.67-18.98-4.45-4.01-7.85-9.23-9.6-15.23L64.9,25.16c-1.72-5.87-.6-12.05,3.07-16.95,3.67-4.9,9.28-7.71,15.4-7.71h29.8c8.49,0,16.08,5.69,18.47,13.83l14.83,50.62h8.44l-5.79-42.61c-.75-5.51.92-11.06,4.57-15.25,3.66-4.19,8.94-6.59,14.5-6.59h85.56c5.56,0,10.84,2.4,14.5,6.59s5.32,9.74,4.58,15.25l-5.79,42.61h8.44l14.83-50.62c2.38-8.15,9.98-13.83,18.47-13.83h29.8c10.06,0,18.49,7.85,19.2,17.88.16,2.29-.08,4.57-.73,6.78l-34.25,116.91c-1.72,5.87-5.01,10.99-9.32,14.97,4.21,5.54,6.39,12.48,6.39,19.23,0,14.13-10.01,26.6-23.8,29.66-1.02.23-2.05.4-3.07.52.22,1.34.34,2.71.34,4.11,0,10.37-6.66,19.64-16.23,23.13,1.13,87.44,18.95,173.64,51.73,250.24h4.1c6.43,0,12.2,3.31,15.45,8.87,3.24,5.55,3.3,12.21.14,17.81l-.44.78-20.95,25.31H97.88Z"/>
      </g>
    </g>
    <g>
      <path class="cls-4" d="m267.67,225.19c0,94.58,19.76,188.86,55.39,269.48H103.22c36.44-81.39,56.68-173.75,56.68-269.48h107.77Z"/>
      <path class="cls-3" d="m333.56,494.31H92.71c-6.04,0-9.85,6.51-6.88,11.77l17.38,20.99h219.84l17.38-21c2.96-5.26-.84-11.77-6.88-11.77Z"/>
      <path class="cls-3" d="m385.94,644.1H40.33c-5.35,0-10.36,1.44-14.66,3.94-8.69,5.06-14.53,14.47-14.53,25.25h404c0-16.12-13.07-29.19-29.19-29.19Z"/>
      <polygon class="cls-4" points="270.37 673.3 11.13 673.3 11.13 702.49 270.37 702.49 415.13 702.49 415.13 673.3 270.37 673.3"/>
      <path class="cls-4" d="m380.66,575.78c-7.29-4.31-14.34-9.04-21.09-14.15-6.74-5.1-13.18-10.58-19.3-16.4-3.14-2.98-6.18-6.06-9.14-9.22-1.15-1.23-7.76-8.74-7.76-8.74H102.91s-6.61,7.51-7.76,8.74c-2.96,3.16-6.01,6.24-9.14,9.22-6.12,5.82-12.56,11.3-19.3,16.4-6.76,5.11-13.8,9.84-21.09,14.15-15.83,9.36-34.48,17.83-34.48,39.13,0,16.12,13.07,29.19,29.19,29.19h345.61c16.12,0,29.19-13.07,29.19-29.19,0-21.3-18.65-29.77-34.48-39.13Z"/>
      <path class="cls-3" d="m283.95,210.94c0-6.98-4.89-12.8-11.43-14.25v-.36h-115.59c-8.07,0-14.61,6.54-14.61,14.61s6.54,14.61,14.61,14.61c1.09,0,2.15-.13,3.17-.36h106.07c1.02.23,2.08.36,3.17.36s2.15-.13,3.17-.36h0c6.54-1.45,11.43-7.28,11.43-14.25Z"/>
      <path class="cls-4" d="m300.52,17.51l-16.94,57.8h-27.38l7.33-53.96c.75-5.55-3.56-10.49-9.16-10.49h-85.56c-5.6,0-9.92,4.94-9.16,10.49l7.33,53.96h-27.38l-16.94-57.8c-1.15-3.94-4.77-6.65-8.87-6.65h-29.8c-6.17,0-10.61,5.93-8.87,11.85l34.25,116.92c2.89,9.85,11.92,16.62,22.18,16.62h160.06c10.26,0,19.3-6.77,22.18-16.62l34.25-116.92c1.73-5.92-2.7-11.85-8.87-11.85h-29.8c-4.11,0-7.72,2.71-8.87,6.65Z"/>
      <path class="cls-3" d="m339.2,10.87s-29.64,133.71-204.54,145.02c-.22.12-.43.24-.64.36h157.62c10.26,0,19.3-6.77,22.18-16.62l34.25-116.92c1.73-5.92-2.7-11.85-8.87-11.85Z"/>
      <path class="cls-5" d="m105.62,17.8h-12.83c-6.17,0-10.61,5.93-8.87,11.85l7.63,26.06c-.39-2.24-.6-4.54-.6-6.88,0-12.5,5.71-23.66,14.67-31.02Z"/>
      <path class="cls-5" d="m188.84,17.8h-12.83c-6.17,0-10.61,5.93-8.87,11.85l3.36,26.06s.16-4.87.46-7.2c1.99-15.34,8.93-23.34,17.88-30.7Z"/>
      <path class="cls-5" d="m26.4,613.83c0-9.73,5.39-18.19,13.34-22.59-11.41.44-20.54,9.8-20.54,21.32,0,9.94,6.8,18.27,16,20.66-5.39-4.73-8.8-11.65-8.8-19.38Z"/>
      <path class="cls-4" d="m290.83,156.25h-157.71c-11.27,0-20.4,9.13-20.4,20.4s9.04,20.3,20.23,20.39h0s157.13,0,157.13,0c1.52,0,3-.18,4.43-.5,9.13-2.03,15.96-10.16,15.96-19.9s-6.24-20.4-19.65-20.4Z"/>
      <path class="cls-5" d="m124.5,177.79c0-6.94,3.84-12.97,9.51-16.11-8.14.31-14.64,6.99-14.64,15.2,0,7.09,4.85,13.03,11.41,14.73-3.84-3.37-6.28-8.31-6.28-13.82Z"/>
    </g>
  </g>
</svg>