<?xml version="1.0" encoding="UTF-8"?>
<svg id="Capa_2" data-name="Capa 2" xmlns="http://www.w3.org/2000/svg" viewBox="0 0 299.57 815.54">
  <defs>
    <style>
      .cls-1 {
        fill: #bbbcbc;
      }

      .cls-1, .cls-2, .cls-3, .cls-4, .cls-5 {
        stroke-width: 0px;
      }

      .cls-6 {
        fill: none;
        stroke: #fff;
        stroke-miterlimit: 10;
      }

      .cls-2 {
        fill: #e1e2e3;
      }

      .cls-4 {
        fill: #fffffd;
      }

      .cls-5 {
        fill: #e1e3e4;
      }
    </style>
  </defs>
  <g id="Icon">
    <g>
      <g>
        <path class="cls-3" d="m.5,815.04v-38.42c0-10.9,4.68-21.22,12.59-28.43-7.73-7.03-12.59-17.17-12.59-28.42,0-9.13,3.29-17.85,9-24.68l-2.3-1.98,12.63-6.94c21.83-12,35.04-25.8,42.83-44.73l2.55-6.19h167.07l2.55,6.19c7.79,18.93,21,32.73,42.83,44.73l12.67,6.96-2.32,1.98c5.71,6.83,8.98,15.54,8.98,24.65,0,10.68-4.45,20.44-11.63,27.45,8.38,7.05,13.71,17.61,13.71,29.4v38.42H.5Z"/>
        <path class="cls-6" d="m.5,815.04v-38.42c0-10.9,4.68-21.22,12.59-28.43-7.73-7.03-12.59-17.17-12.59-28.42,0-9.13,3.29-17.85,9-24.68l-2.3-1.98,12.63-6.94c21.83-12,35.04-25.8,42.83-44.73l2.55-6.19h167.07l2.55,6.19c7.79,18.93,21,32.73,42.83,44.73l12.67,6.96-2.32,1.98c5.71,6.83,8.98,15.54,8.98,24.65,0,10.68-4.45,20.44-11.63,27.45,8.38,7.05,13.71,17.61,13.71,29.4v38.42H.5Z"/>
      </g>
      <g>
        <path class="cls-3" d="m66.78,655.24l-20.49-24.75-.44-.78c-3.12-5.54-3.07-12.12.14-17.61,3.21-5.49,8.92-8.76,15.27-8.76h7.92c20.32-47.35,31.63-97.96,33.62-150.53-.76-3.79-4.11-6.57-8.03-6.57h-32.6v-1.8c-11.47-4.18-19.7-15.21-19.7-28.06,0-10.86,5.83-20.39,14.53-25.62-.93-2.58-1.43-5.35-1.43-8.23,0-13.36,10.87-24.22,24.22-24.22h137.91c14.47,0,23.11,12.32,23.11,24.22,0,2.5-.39,4.93-1.12,7.24,10.04,5.28,15.33,16.18,15.33,26.61,0,13.88-9.83,26.13-23.38,29.14-2.17.48-4.35.72-6.48.72h-22.44c-3.92,0-7.27,2.78-8.03,6.57,1.97,52.39,13.29,104.27,32.81,150.53h8.74c6.35,0,12.06,3.28,15.27,8.76,3.21,5.49,3.26,12.07.14,17.6l-.44.78-20.49,24.75H66.78Z"/>
        <path class="cls-6" d="m66.78,655.24l-20.49-24.75-.44-.78c-3.12-5.54-3.07-12.12.14-17.61,3.21-5.49,8.92-8.76,15.27-8.76h7.92c20.32-47.35,31.63-97.96,33.62-150.53-.76-3.79-4.11-6.57-8.03-6.57h-32.6v-1.8c-11.47-4.18-19.7-15.21-19.7-28.06,0-10.86,5.83-20.39,14.53-25.62-.93-2.58-1.43-5.35-1.43-8.23,0-13.36,10.87-24.22,24.22-24.22h137.91c14.47,0,23.11,12.32,23.11,24.22,0,2.5-.39,4.93-1.12,7.24,10.04,5.28,15.33,16.18,15.33,26.61,0,13.88-9.83,26.13-23.38,29.14-2.17.48-4.35.72-6.48.72h-22.44c-3.92,0-7.27,2.78-8.03,6.57,1.97,52.39,13.29,104.27,32.81,150.53h8.74c6.35,0,12.06,3.28,15.27,8.76,3.21,5.49,3.26,12.07.14,17.6l-.44.78-20.49,24.75H66.78Z"/>
      </g>
      <g>
        <path class="cls-3" d="m84.31,378.31v-18.44c-4.84-3.24-8.03-8.75-8.03-15,0-5.29,2.23-10.02,5.82-13.31-.95-1.78-2.18-3.39-3.63-4.74-.68-.52-1.34-1.05-2.01-1.58l-.23-.18-4.37-2.87v-.76c-25.47-22.24-39.98-54.04-39.98-87.99,0-23.76,14.97-59.15,44.5-105.19,18.71-29.17,39.28-56.39,51.88-72.46-.08-.07-.17-.14-.25-.21-.51-.43-1.02-.9-1.52-1.38-.25-.24-.5-.5-.75-.75-.42-.44-.83-.89-1.22-1.34-.3-.35-.6-.71-.89-1.08-.32-.41-.63-.82-.93-1.24-.21-.3-.41-.58-.6-.87-.08-.12-.17-.25-.25-.38h0c-3.21-5.04-4.9-10.83-4.9-16.78,0-17.23,14.02-31.24,31.24-31.24,5.76,0,11.4,1.6,16.33,4.63h0c.18.1.36.22.53.33.36.23.68.44,1,.66.61.43,1.18.85,1.72,1.29.25.2.51.42.76.65l.11.1c.37.32.73.65,1.09.99l.07.06c.24.23.48.46.72.7.53.54,1.03,1.09,1.51,1.66.21.25.4.48.59.72l.07.09c.34.42.67.88,1,1.34l.06.09c.17.23.33.46.49.7.41.61.81,1.28,1.22,2,.14.25.26.49.39.72.34.65.62,1.24.89,1.84.11.24.2.44.28.64.32.78.61,1.56.88,2.4.07.22.14.44.21.67.24.81.43,1.53.58,2.24.05.2.09.39.13.58.15.73.28,1.61.4,2.58.03.28.05.5.07.73.07.78.11,1.5.13,2.19v.07s0,.56,0,.56c0,9.2-4.04,17.67-10.64,23.47,25.72,32.73,81.33,107.62,94.06,158.22l.04.17c.28,1.13.53,2.19.76,3.23l.07.31c.22,1.05.43,2.05.61,3.04.03.19.12.69.12.69.15.89.31,1.78.43,2.66.04.28.07.53.1.79l.07.55c.09.66.17,1.33.24,1.98.04.43.08.86.1,1.28l.06.79c.04.42.07.84.09,1.25.06,1.11.09,2.21.09,3.27,0,36.9-16.75,70.81-45.96,93.04-.21.17-.42.35-.62.53l-.65.61c-.14.14-.27.28-.39.41l-.25.27c-.13.14-.28.31-.42.49l-.13.15c-.15.18-.3.37-.44.56l-.12.16c-.45.62-.86,1.26-1.23,1.94,3.58,3.29,5.8,8.02,5.8,13.29,0,6.25-3.19,11.76-8.03,15v18.44H84.31Z"/>
        <path class="cls-6" d="m84.31,378.31v-18.44c-4.84-3.24-8.03-8.75-8.03-15,0-5.29,2.23-10.02,5.82-13.31-.95-1.78-2.18-3.39-3.63-4.74-.68-.52-1.34-1.05-2.01-1.58l-.23-.18-4.37-2.87v-.76c-25.47-22.24-39.98-54.04-39.98-87.99,0-23.76,14.97-59.15,44.5-105.19,18.71-29.17,39.28-56.39,51.88-72.46-.08-.07-.17-.14-.25-.21-.51-.43-1.02-.9-1.52-1.38-.25-.24-.5-.5-.75-.75-.42-.44-.83-.89-1.22-1.34-.3-.35-.6-.71-.89-1.08-.32-.41-.63-.82-.93-1.24-.21-.3-.41-.58-.6-.87-.08-.12-.17-.25-.25-.38h0c-3.21-5.04-4.9-10.83-4.9-16.78,0-17.23,14.02-31.24,31.24-31.24,5.76,0,11.4,1.6,16.33,4.63h0c.18.1.36.22.53.33.36.23.68.44,1,.66.61.43,1.18.85,1.72,1.29.25.2.51.42.76.65l.11.1c.37.32.73.65,1.09.99l.07.06c.24.23.48.46.72.7.53.54,1.03,1.09,1.51,1.66.21.25.4.48.59.72l.07.09c.34.42.67.88,1,1.34l.06.09c.17.23.33.46.49.7.41.61.81,1.28,1.22,2,.14.25.26.49.39.72.34.65.62,1.24.89,1.84.11.24.2.44.28.64.32.78.61,1.56.88,2.4.07.22.14.44.21.67.24.81.43,1.53.58,2.24.05.2.09.39.13.58.15.73.28,1.61.4,2.58.03.28.05.5.07.73.07.78.11,1.5.13,2.19v.07s0,.56,0,.56c0,9.2-4.04,17.67-10.64,23.47,25.72,32.73,81.33,107.62,94.06,158.22l.04.17c.28,1.13.53,2.19.76,3.23l.07.31c.22,1.05.43,2.05.61,3.04.03.19.12.69.12.69.15.89.31,1.78.43,2.66.04.28.07.53.1.79l.07.55c.09.66.17,1.33.24,1.98.04.43.08.86.1,1.28l.06.79c.04.42.07.84.09,1.25.06,1.11.09,2.21.09,3.27,0,36.9-16.75,70.81-45.96,93.04-.21.17-.42.35-.62.53l-.65.61c-.14.14-.27.28-.39.41l-.25.27c-.13.14-.28.31-.42.49l-.13.15c-.15.18-.3.37-.44.56l-.12.16c-.45.62-.86,1.26-1.23,1.94,3.58,3.29,5.8,8.02,5.8,13.29,0,6.25-3.19,11.76-8.03,15v18.44H84.31Z"/>
      </g>
    </g>
    <g>
      <g>
        <path class="cls-2" d="m236.05,613.43l-174.99-.17c-5.88,0-9.59,6.33-6.71,11.46l16.9,20.45,154.53.15,16.94-20.43c2.89-5.12-.8-11.46-6.68-11.46Z"/>
        <path class="cls-5" d="m286.69,719.9c0-10.49-5.67-19.66-14.12-24.6-.06-.03-.12-.06-.18-.1l.18-.16c-21.65-11.93-37.86-26.95-47.22-49.73l-76.84-.07-76.83-.07c-9.4,22.77-25.64,37.76-47.31,49.64l.18.16c-.06.03-.12.06-.18.1-8.46,4.92-14.16,14.08-14.17,24.57-.01,15.7,12.7,28.44,28.4,28.45l221.72.21v-.11c14.73-1.05,26.36-13.3,26.37-28.29Z"/>
        <path class="cls-2" d="m260.32,748.29l-221.72-.21c-5.2,0-10.08,1.39-14.28,3.83-8.46,4.92-14.16,14.08-14.17,24.57l28.42.03,28.42.03,164.87.16,28.42.03,28.42.03c.01-15.7-12.7-28.44-28.4-28.45Z"/>
        <polygon class="cls-5" points="149.43 776.61 10.15 776.48 10.12 804.9 149.41 805.04 288.69 805.17 288.72 776.74 149.43 776.61"/>
        <path class="cls-5" d="m220.73,613.41c-21.47-48.72-34.14-104.23-36.11-161.14,1.1-9.01,8.77-15.99,18.07-15.98l-18.38-.02-71.19-.07-18.38-.02c9.31,0,16.96,7,18.04,16.01-2.11,57.37-15.2,111.89-37.27,161.07l145.21.14Z"/>
        <path class="cls-4" d="m24.85,718.6c0-9.47,5.26-17.71,13.01-21.99-11.11.41-20.01,9.52-20.02,20.74,0,9.68,6.61,17.8,15.56,20.13-5.24-4.61-8.56-11.35-8.55-18.88Z"/>
        <path class="cls-2" d="m225.9,396.59l-153.56-.15c-10.97-.01-19.87,8.87-19.88,19.84-.01,10.91,8.78,19.77,19.68,19.87h0s152.99.15,152.99.15c1.48,0,2.93-.17,4.32-.48,8.89-1.96,15.55-9.88,15.56-19.36s-6.06-19.87-19.11-19.88Z"/>
        <path class="cls-5" d="m217.73,368.38l-137.91-.13c-7.86,0-14.23,6.35-14.24,14.21,0,7.86,6.36,14.23,14.21,14.24l137.91.13v-.06c.67-.05,1.34-.14,1.98-.28,6.37-1.41,11.14-7.07,11.15-13.87,0-6.79-4.7-14.23-13.1-14.24Z"/>
      </g>
      <circle class="cls-5" cx="148.55" cy="31.74" r="21.24" transform="translate(83.39 168.96) rotate(-76.66)"/>
      <path class="cls-5" d="m255.79,233.53c.06-59.03-106.7-187.3-106.7-187.3,0,0-107,128.07-107.06,187.1-.03,33.7,15.55,63.75,39.9,83.37v.03c.13.09.26.19.39.28.86.69,1.72,1.39,2.61,2.05,5.79,5.17,9.45,12.89,9.44,21.21l-.03,28.01,108.87.1.03-28.01c0-8.79,3.96-16.63,10.34-21.71h0c25.72-19.49,42.17-50.35,42.2-85.12Z"/>
      <path class="cls-2" d="m203.23,352.95l-108.87-.1c-4.44,0-8.03-3.6-8.03-8.04,0-4.44,3.6-8.03,8.04-8.03l108.87.1c4.44,0,8.03,3.6,8.03,8.04,0,4.44-3.6,8.03-8.04,8.03Z"/>
      <path class="cls-1" d="m213.59,318.65c25.72-19.49,42.17-50.35,42.2-85.12,0-7.11-1.55-15.23-4.27-24-.16.52-35.12,113.17-157.15,128.62,28.99.03,76.09.07,108.99.1.58-7.93,4.36-14.94,10.22-19.61Z"/>
      <g>
        <path class="cls-2" d="m159.68,13.66c2.11,3.3,3.33,7.23,3.33,11.44-.01,11.73-9.53,21.23-21.26,21.22-4.07,0-7.88-1.16-11.11-3.15,3.77,5.9,10.37,9.81,17.89,9.81,11.73.01,21.24-9.49,21.26-21.22,0-7.65-4.04-14.37-10.11-18.11Z"/>
        <path class="cls-4" d="m131.04,33.7c0-10.35,8.41-18.74,18.76-18.73,6.05,0,11.43,2.88,14.85,7.33-3.23-5.62-9.29-9.41-16.25-9.42-10.35,0-18.75,8.37-18.76,18.73,0,4.3,1.44,8.27,3.88,11.43-1.58-2.75-2.49-5.94-2.48-9.35Z"/>
      </g>
      <path class="cls-4" d="m159.87,74.54c-7.92-10.26-13.22-16.62-13.22-16.62,0,0-35.24,42.18-60.02,84.44,19.08-27.65,44.11-50.87,73.24-67.82Z"/>
      <path class="cls-4" d="m63.43,417.41c0-6.75,3.75-12.63,9.28-15.68-7.92.3-14.26,6.79-14.27,14.79,0,6.9,4.71,12.69,11.1,14.35-3.74-3.29-6.1-8.09-6.1-13.46Z"/>
    </g>
  </g>
</svg>