<?xml version="1.0" encoding="UTF-8"?>
<svg id="Capa_2" data-name="Capa 2" xmlns="http://www.w3.org/2000/svg" viewBox="0 0 364.08 797">
  <defs>
    <style>
      .cls-1 {
        fill: none;
        stroke: #000;
        stroke-miterlimit: 10;
      }

      .cls-2 {
        fill: #fff;
      }

      .cls-2, .cls-3, .cls-4, .cls-5 {
        stroke-width: 0px;
      }

      .cls-3 {
        fill: #383533;
      }

      .cls-4 {
        fill: #44403d;
      }

      .cls-5 {
        fill: #565656;
      }
    </style>
  </defs>
  <g id="Icon">
    <g>
      <g>
        <path class="cls-2" d="m.5,796.5v-34.79c0-9.4,3.85-18.33,10.4-24.8-6.42-6.31-10.4-15.09-10.4-24.78,0-22.12,17.54-32.23,30.35-39.6,1.29-.74,2.58-1.48,3.84-2.23,5.84-3.45,11.55-7.28,16.97-11.39,5.41-4.09,10.63-8.53,15.53-13.19,2.5-2.38,4.98-4.88,7.36-7.42.6-.64,4.1-4.59,6.39-7.2l2.99-3.39h196.24l2.99,3.39c2.71,3.08,5.84,6.61,6.39,7.2,2.38,2.55,4.86,5.04,7.36,7.42,4.9,4.67,10.12,9.11,15.53,13.2,5.42,4.1,11.13,7.93,16.97,11.38,1.26.75,2.55,1.49,3.84,2.23,12.81,7.38,30.35,17.48,30.35,39.6,0,9.69-3.99,18.47-10.4,24.79,6.42,6.32,10.4,15.1,10.4,24.79v34.79H.5Z"/>
        <path class="cls-1" d="m.5,796.5v-34.79c0-9.4,3.85-18.33,10.4-24.8-6.42-6.31-10.4-15.09-10.4-24.78,0-22.12,17.54-32.23,30.35-39.6,1.29-.74,2.58-1.48,3.84-2.23,5.84-3.45,11.55-7.28,16.97-11.39,5.41-4.09,10.63-8.53,15.53-13.19,2.5-2.38,4.98-4.88,7.36-7.42.6-.64,4.1-4.59,6.39-7.2l2.99-3.39h196.24l2.99,3.39c2.71,3.08,5.84,6.61,6.39,7.2,2.38,2.55,4.86,5.04,7.36,7.42,4.9,4.67,10.12,9.11,15.53,13.2,5.42,4.1,11.13,7.93,16.97,11.38,1.26.75,2.55,1.49,3.84,2.23,12.81,7.38,30.35,17.48,30.35,39.6,0,9.69-3.99,18.47-10.4,24.79,6.42,6.32,10.4,15.1,10.4,24.79v34.79H.5Z"/>
      </g>
      <g>
        <path class="cls-2" d="m83.99,647.54l-18.33-22.13-.44-.78c-2.95-5.23-2.9-11.45.13-16.63,3.03-5.18,8.42-8.28,14.42-8.28h2.52c27.86-64.52,43.14-136.27,44.44-208.54h-21.49v-1.97c-10.05-4.05-17.18-13.91-17.18-25.35,0-9.57,4.95-18.01,12.42-22.89-.65-2.1-1-4.33-1-6.63,0-11.81,9.18-21.51,20.78-22.35.17-.71.33-1.44.49-2.17-3.35-3.12-5.44-7.56-5.44-12.43,0-5.9,3.02-11.11,7.59-14.16-.02-2.53-.08-5.26-.18-8.27l-.34-10.3h.32c-2.07-60.49-21.47-117.21-56.41-164.59l-.34-.46-.87-1.52c-.37-.65-.74-1.3-1.12-1.95l-3.41-5.81,4.1-5.34c6.79-8.85,17.08-13.93,28.23-13.93,6.04,0,12.01,1.54,17.26,4.46.07.04.15.08.22.13,15.93-23.49,42.85-38.1,71.67-38.1s55.83,14.66,71.75,38.23c.15-.08.29-.17.44-.25,5.25-2.92,11.22-4.46,17.26-4.46,11.15,0,21.44,5.08,28.23,13.93l4.09,5.34-3.4,5.8c-.37.64-.74,1.28-1.11,1.92l-.89,1.55-.34.46c-36.75,49.84-56.26,110.21-56.43,174.58v.31c-.11,3.01-.16,5.73-.18,8.27,4.58,3.05,7.6,8.26,7.6,14.16,0,4.87-2.09,9.32-5.45,12.44.16.74.32,1.47.49,2.19,12.25,1.04,19.51,11.85,19.51,22.33,0,1.95-.26,3.85-.74,5.68,8.6,5,13.13,14.62,13.13,23.84,0,12.7-9,23.91-21.39,26.66-1.98.44-3.97.66-5.93.66h-10.25c1.25,72.86,16.17,144.62,43.38,208.54h2.49c6,0,11.39,3.09,14.42,8.28s3.08,11.4.13,16.63l-.44.78-18.33,22.14H83.99Z"/>
        <path class="cls-1" d="m83.99,647.54l-18.33-22.13-.44-.78c-2.95-5.23-2.9-11.45.13-16.63,3.03-5.18,8.42-8.28,14.42-8.28h2.52c27.86-64.52,43.14-136.27,44.44-208.54h-21.49v-1.97c-10.05-4.05-17.18-13.91-17.18-25.35,0-9.57,4.95-18.01,12.42-22.89-.65-2.1-1-4.33-1-6.63,0-11.81,9.18-21.51,20.78-22.35.17-.71.33-1.44.49-2.17-3.35-3.12-5.44-7.56-5.44-12.43,0-5.9,3.02-11.11,7.59-14.16-.02-2.53-.08-5.26-.18-8.27l-.34-10.3h.32c-2.07-60.49-21.47-117.21-56.41-164.59l-.34-.46-.87-1.52c-.37-.65-.74-1.3-1.12-1.95l-3.41-5.81,4.1-5.34c6.79-8.85,17.08-13.93,28.23-13.93,6.04,0,12.01,1.54,17.26,4.46.07.04.15.08.22.13,15.93-23.49,42.85-38.1,71.67-38.1s55.83,14.66,71.75,38.23c.15-.08.29-.17.44-.25,5.25-2.92,11.22-4.46,17.26-4.46,11.15,0,21.44,5.08,28.23,13.93l4.09,5.34-3.4,5.8c-.37.64-.74,1.28-1.11,1.92l-.89,1.55-.34.46c-36.75,49.84-56.26,110.21-56.43,174.58v.31c-.11,3.01-.16,5.73-.18,8.27,4.58,3.05,7.6,8.26,7.6,14.16,0,4.87-2.09,9.32-5.45,12.44.16.74.32,1.47.49,2.19,12.25,1.04,19.51,11.85,19.51,22.33,0,1.95-.26,3.85-.74,5.68,8.6,5,13.13,14.62,13.13,23.84,0,12.7-9,23.91-21.39,26.66-1.98.44-3.97.66-5.93.66h-10.25c1.25,72.86,16.17,144.62,43.38,208.54h2.49c6,0,11.39,3.09,14.42,8.28s3.08,11.4.13,16.63l-.44.78-18.33,22.14H83.99Z"/>
      </g>
      <g>
        <path class="cls-2" d="m181.69,57.56h-.06c-.68-.02-1.39-.06-2.16-.12-.21-.02-.42-.04-.63-.06-.87-.1-1.67-.22-2.43-.37-.2-.04-.36-.08-.52-.12-.65-.14-1.3-.31-1.95-.5-.25-.07-.43-.13-.61-.18-.77-.25-1.5-.52-2.19-.8-.18-.07-.38-.16-.57-.25-.62-.27-1.16-.54-1.7-.81-.25-.13-.45-.23-.64-.34-.6-.33-1.22-.71-1.86-1.13-.21-.14-.45-.3-.68-.46-.47-.33-.92-.67-1.36-1.02l-.08-.07c-.21-.17-.42-.34-.63-.51-.5-.43-.96-.85-1.41-1.28-.24-.23-.48-.47-.71-.71-.36-.38-.73-.78-1.09-1.2-.26-.31-.53-.64-.8-.98-.3-.39-.59-.77-.87-1.16-.18-.26-.36-.52-.53-.77-.06-.09-.13-.19-.19-.28h0c-2.96-4.61-4.52-9.93-4.52-15.38,0-15.73,12.8-28.53,28.53-28.53,5.27,0,10.44,1.47,14.96,4.26h0c.15.08.29.18.43.27h.02c.31.21.62.41.92.62.52.36,1.04.75,1.55,1.16.25.21.49.41.72.61l.09.08c.34.3.67.59.98.89l.08.08c.22.21.44.42.66.64.46.47.92.98,1.36,1.5.21.25.38.46.55.67l.07.09c.31.4.62.81.91,1.23l.03.04c.15.21.29.41.43.62.4.61.77,1.2,1.13,1.86.12.22.37.69.37.69.31.6.57,1.13.81,1.68.08.18.16.35.24.53.3.72.56,1.42.81,2.21.09.28.16.5.22.72.19.65.36,1.29.5,1.92.05.19.09.37.12.55.14.7.27,1.5.37,2.39.03.23.05.45.07.66.01.15.03.29.04.43l.09.22v1.92c0,15.73-12.79,28.52-28.52,28.52h-.36Z"/>
        <path class="cls-1" d="m181.69,57.56h-.06c-.68-.02-1.39-.06-2.16-.12-.21-.02-.42-.04-.63-.06-.87-.1-1.67-.22-2.43-.37-.2-.04-.36-.08-.52-.12-.65-.14-1.3-.31-1.95-.5-.25-.07-.43-.13-.61-.18-.77-.25-1.5-.52-2.19-.8-.18-.07-.38-.16-.57-.25-.62-.27-1.16-.54-1.7-.81-.25-.13-.45-.23-.64-.34-.6-.33-1.22-.71-1.86-1.13-.21-.14-.45-.3-.68-.46-.47-.33-.92-.67-1.36-1.02l-.08-.07c-.21-.17-.42-.34-.63-.51-.5-.43-.96-.85-1.41-1.28-.24-.23-.48-.47-.71-.71-.36-.38-.73-.78-1.09-1.2-.26-.31-.53-.64-.8-.98-.3-.39-.59-.77-.87-1.16-.18-.26-.36-.52-.53-.77-.06-.09-.13-.19-.19-.28h0c-2.96-4.61-4.52-9.93-4.52-15.38,0-15.73,12.8-28.53,28.53-28.53,5.27,0,10.44,1.47,14.96,4.26h0c.15.08.29.18.43.27h.02c.31.21.62.41.92.62.52.36,1.04.75,1.55,1.16.25.21.49.41.72.61l.09.08c.34.3.67.59.98.89l.08.08c.22.21.44.42.66.64.46.47.92.98,1.36,1.5.21.25.38.46.55.67l.07.09c.31.4.62.81.91,1.23l.03.04c.15.21.29.41.43.62.4.61.77,1.2,1.13,1.86.12.22.37.69.37.69.31.6.57,1.13.81,1.68.08.18.16.35.24.53.3.72.56,1.42.81,2.21.09.28.16.5.22.72.19.65.36,1.29.5,1.92.05.19.09.37.12.55.14.7.27,1.5.37,2.39.03.23.05.45.07.66.01.15.03.29.04.43l.09.22v1.92c0,15.73-12.79,28.52-28.52,28.52h-.36Z"/>
      </g>
    </g>
    <g>
      <path class="cls-4" d="m228.95,382.56c0,80.32,16.78,160.38,47.03,228.84H89.3c30.94-69.12,48.13-147.55,48.13-228.84h91.52Z"/>
      <path class="cls-3" d="m284.9,611.1H80.38c-5.13,0-8.36,5.53-5.84,10l14.76,17.82h186.68l14.76-17.83c2.52-4.47-.71-9.99-5.84-9.99Z"/>
      <path class="cls-3" d="m329.39,738.3H35.89c-4.54,0-8.79,1.22-12.45,3.35-7.38,4.29-12.34,12.29-12.34,21.44h343.08c0-13.69-11.1-24.79-24.79-24.79Z"/>
      <polygon class="cls-4" points="231.25 763.09 11.1 763.09 11.1 787.88 231.25 787.88 354.18 787.88 354.18 763.09 231.25 763.09"/>
      <path class="cls-4" d="m324.9,680.28c-6.19-3.66-12.18-7.68-17.91-12.02-5.72-4.33-11.19-8.98-16.39-13.93-2.66-2.53-5.25-5.15-7.76-7.83-.98-1.04-6.59-7.42-6.59-7.42H89.04s-5.62,6.38-6.59,7.42c-2.51,2.68-5.1,5.3-7.76,7.83-5.19,4.94-10.67,9.6-16.39,13.93-5.74,4.34-11.72,8.36-17.91,12.02-13.44,7.95-29.28,15.14-29.28,33.23,0,13.69,11.1,24.79,24.79,24.79h293.5c13.69,0,24.79-11.1,24.79-24.79,0-18.09-15.83-25.28-29.28-33.23Z"/>
      <path class="cls-5" d="m24.06,712.59c0-8.26,4.58-15.45,11.33-19.19-9.69.37-17.44,8.32-17.44,18.1,0,8.44,5.78,15.52,13.59,17.54-4.57-4.02-7.48-9.89-7.48-16.46Z"/>
      <path class="cls-3" d="m249.92,347.92H115.99c-9.57,0-17.32,7.76-17.32,17.32s7.68,17.24,17.18,17.31h0s133.43,0,133.43,0c1.29,0,2.55-.15,3.76-.42,7.75-1.72,13.56-8.63,13.56-16.9s-5.3-17.32-16.68-17.32Z"/>
      <path class="cls-5" d="m108.3,366.21c0-5.89,3.26-11.02,8.08-13.68-6.91.26-12.44,5.93-12.44,12.91,0,6.02,4.12,11.06,9.69,12.51-3.26-2.86-5.33-7.05-5.33-11.74Z"/>
      <path class="cls-4" d="m242.78,323.32h-120.28c-6.85,0-12.41,5.55-12.41,12.41s5.55,12.41,12.41,12.41h120.28v-.06c.59-.05,1.17-.12,1.73-.25,5.55-1.23,9.71-6.18,9.71-12.1s-4.11-12.41-11.44-12.41Z"/>
      <circle class="cls-3" cx="182.64" cy="125.4" r="76.47"/>
      <circle class="cls-4" cx="182.64" cy="30.41" r="18.53" transform="translate(123.37 205.82) rotate(-80.78)"/>
      <path class="cls-4" d="m292.38,92.47c-4.67-6.09-12.02-10.02-20.3-10.02-4.32,0-8.62,1.1-12.4,3.2-4.43,2.46-7.63,6.45-10.34,10.64-2.73,4.21-6.64,7.58-11.24,9.59-3.22,1.41-6.72,2.13-10.24,2.13-9.05,0-17.19-5.54-22.21-12.82-5.19-7.51-12.6-12.75-22.03-12.75-.28,0-.56.02-.84.03-.28,0-.56-.03-.84-.03-9.43,0-16.84,5.24-22.03,12.75-5.02,7.27-13.16,12.82-22.21,12.82-3.51,0-7.02-.72-10.24-2.13-4.6-2.01-8.51-5.38-11.24-9.59-2.71-4.19-5.91-8.18-10.34-10.64-3.78-2.1-8.08-3.2-12.4-3.2-8.27,0-15.62,3.93-20.3,10.02.59,1.01,1.17,2.03,1.75,3.05,37.26,50.53,58.37,112.93,58.55,180.49h-.16c.53,15.74.3,32.72-5.11,47.71h109.14c-5.41-14.99-5.64-31.96-5.11-47.71h0c.18-67.56,21.12-129.96,58.38-180.49.58-1.02,1.16-2.04,1.75-3.05Z"/>
      <g>
        <path class="cls-3" d="m192.34,14.63c1.84,2.88,2.91,6.3,2.91,9.98,0,10.23-8.29,18.52-18.52,18.52-3.55,0-6.87-1-9.69-2.74,3.29,5.14,9.05,8.54,15.61,8.54,10.23,0,18.52-8.29,18.52-18.52,0-6.68-3.53-12.53-8.83-15.79Z"/>
        <path class="cls-5" d="m167.37,32.13c0-9.03,7.32-16.35,16.35-16.35,5.28,0,9.97,2.5,12.96,6.38-2.82-4.9-8.11-8.2-14.18-8.2-9.03,0-16.35,7.32-16.35,16.35,0,3.75,1.26,7.21,3.39,9.97-1.38-2.4-2.17-5.18-2.17-8.15Z"/>
      </g>
      <path class="cls-5" d="m196.68,92.45c-4.57-3.04-9.87-4.58-15.7-3.69-.25.04-.49.09-.73.14-.25.03-.5.05-.74.09-8.29,1.26-14.11,6.87-17.67,14.17-.44.9-.93,1.78-1.46,2.64,6.46-6.78,15.13-11.56,25.11-13.08,3.8-.58,7.56-.65,11.21-.26Z"/>
      <path class="cls-5" d="m286.58,92.45c-4.57-3.04-9.87-4.58-15.71-3.69-.25.04-.49.09-.73.14-.25.03-.5.05-.74.09-8.29,1.26-14.11,6.87-17.67,14.17-.44.9-.93,1.78-1.46,2.64,6.46-6.78,15.13-11.56,25.11-13.08,3.8-.58,7.56-.65,11.21-.26Z"/>
      <path class="cls-3" d="m231.78,276.01h0c.1-39.72,7.4-77.66,20.95-112.45-19.09,43.41-56.98,107.85-119.8,129.61,0,.06,0,.12,0,.18h98.79c-.21-5.84-.12-11.67.06-17.34Z"/>
      <path class="cls-3" d="m232.66,305.77h-99.73c-3.87,0-7.01-3.14-7.01-7.01s3.14-7.01,7.01-7.01h99.73c3.87,0,7.01,3.14,7.01,7.01s-3.14,7.01-7.01,7.01Z"/>
    </g>
  </g>
</svg>