<?xml version="1.0" encoding="UTF-8"?>
<svg id="Capa_2" data-name="Capa 2" xmlns="http://www.w3.org/2000/svg" viewBox="0 0 299.57 815.53">
  <defs>
    <style>
      .cls-1 {
        fill: none;
        stroke: #000;
        stroke-miterlimit: 10;
      }

      .cls-2 {
        fill: #43403e;
      }

      .cls-2, .cls-3, .cls-4, .cls-5, .cls-6 {
        stroke-width: 0px;
      }

      .cls-3 {
        fill: #fff;
      }

      .cls-4 {
        fill: #3c3938;
      }

      .cls-5 {
        fill: #403b2a;
      }

      .cls-6 {
        fill: #fffffd;
      }
    </style>
  </defs>
  <g id="Icon">
    <g>
      <g>
        <path class="cls-3" d="m.5,815.03v-38.42c0-10.9,4.68-21.22,12.59-28.43-7.73-7.03-12.59-17.17-12.59-28.42,0-9.12,3.28-17.84,8.98-24.67l-2.31-1.98,12.65-6.95c21.83-12,35.04-25.79,42.83-44.73l2.55-6.19h167.07l2.55,6.19c7.79,18.93,21,32.73,42.83,44.73l12.67,6.96-2.31,1.98c5.69,6.82,8.97,15.54,8.97,24.66,0,10.68-4.45,20.44-11.63,27.45,8.38,7.05,13.71,17.61,13.71,29.39v38.42H.5Z"/>
        <path class="cls-1" d="m.5,815.03v-38.42c0-10.9,4.68-21.22,12.59-28.43-7.73-7.03-12.59-17.17-12.59-28.42,0-9.12,3.28-17.84,8.98-24.67l-2.31-1.98,12.65-6.95c21.83-12,35.04-25.79,42.83-44.73l2.55-6.19h167.07l2.55,6.19c7.79,18.93,21,32.73,42.83,44.73l12.67,6.96-2.31,1.98c5.69,6.82,8.97,15.54,8.97,24.66,0,10.68-4.45,20.44-11.63,27.45,8.38,7.05,13.71,17.61,13.71,29.39v38.42H.5Z"/>
      </g>
      <g>
        <path class="cls-3" d="m66.78,655.24l-20.49-24.75-.44-.78c-3.12-5.54-3.07-12.12.14-17.61,3.21-5.49,8.92-8.77,15.27-8.77h7.92c20.32-47.35,31.63-97.96,33.62-150.53-.76-3.79-4.11-6.57-8.03-6.57h-32.6v-1.8c-11.47-4.18-19.7-15.21-19.7-28.06,0-10.86,5.83-20.39,14.53-25.62-.93-2.58-1.43-5.35-1.43-8.23,0-13.36,10.87-24.22,24.23-24.22h137.91c14.47,0,23.11,12.32,23.11,24.22,0,2.5-.39,4.93-1.12,7.24,10.03,5.28,15.33,16.18,15.33,26.61,0,13.88-9.83,26.13-23.38,29.14-2.17.48-4.35.72-6.48.72h-22.44c-3.92,0-7.27,2.78-8.03,6.57,1.98,52.4,13.3,104.27,32.81,150.53h8.74c6.35,0,12.06,3.28,15.27,8.76,3.21,5.49,3.26,12.07.14,17.6l-.44.78-20.5,24.75H66.78Z"/>
        <path class="cls-1" d="m66.78,655.24l-20.49-24.75-.44-.78c-3.12-5.54-3.07-12.12.14-17.61,3.21-5.49,8.92-8.77,15.27-8.77h7.92c20.32-47.35,31.63-97.96,33.62-150.53-.76-3.79-4.11-6.57-8.03-6.57h-32.6v-1.8c-11.47-4.18-19.7-15.21-19.7-28.06,0-10.86,5.83-20.39,14.53-25.62-.93-2.58-1.43-5.35-1.43-8.23,0-13.36,10.87-24.22,24.23-24.22h137.91c14.47,0,23.11,12.32,23.11,24.22,0,2.5-.39,4.93-1.12,7.24,10.03,5.28,15.33,16.18,15.33,26.61,0,13.88-9.83,26.13-23.38,29.14-2.17.48-4.35.72-6.48.72h-22.44c-3.92,0-7.27,2.78-8.03,6.57,1.98,52.4,13.3,104.27,32.81,150.53h8.74c6.35,0,12.06,3.28,15.27,8.76,3.21,5.49,3.26,12.07.14,17.6l-.44.78-20.5,24.75H66.78Z"/>
      </g>
      <g>
        <path class="cls-3" d="m84.31,378.31v-18.44c-4.84-3.24-8.03-8.75-8.03-15,0-5.29,2.23-10.02,5.82-13.31-.95-1.78-2.18-3.39-3.63-4.74-.68-.52-1.35-1.05-2.01-1.58l-.23-.18-4.37-2.88v-.75c-25.47-22.24-39.98-54.04-39.98-87.99,0-23.76,14.97-59.15,44.5-105.19,18.7-29.17,39.28-56.38,51.88-72.46-.09-.07-.17-.14-.25-.21-.51-.44-1.03-.9-1.53-1.39-.25-.25-.5-.5-.75-.75-.42-.44-.83-.89-1.22-1.34-.3-.35-.6-.71-.89-1.08-.33-.42-.64-.83-.93-1.25-.19-.28-.39-.55-.58-.84-.08-.11-.15-.22-.22-.33h0c-3.24-5.05-4.94-10.87-4.94-16.85,0-17.23,14.02-31.24,31.24-31.24,5.76,0,11.4,1.6,16.33,4.63h0c.18.1.35.21.53.33.35.22.68.44,1,.66.62.43,1.18.85,1.73,1.29.25.2.51.43.77.65l.11.09c.36.31.72.64,1.08.98l.07.07c.25.23.49.47.73.71.51.53,1.02,1.09,1.51,1.66.2.23.38.46.56.7l.08.1c.35.44.69.89,1.01,1.35l.08.11c.15.21.3.43.45.65.43.65.83,1.31,1.24,2.04.15.26.28.51.41.76.33.62.61,1.21.87,1.81.11.24.21.45.29.66.3.73.59,1.51.87,2.37.08.24.15.49.23.74.22.74.41,1.47.56,2.17.04.17.08.33.11.49.17.85.31,1.72.42,2.7.03.24.05.48.07.71.08.91.12,1.71.13,2.49v.33c0,9.2-4.04,17.67-10.64,23.47,25.72,32.73,81.33,107.62,94.06,158.22l.05.22c.25,1.01.51,2.1.75,3.18l.07.34c.22,1.03.42,2.03.61,3.02.03.18.12.69.12.69.16.89.31,1.78.43,2.66.04.27.07.54.1.82l.06.45c.09.69.18,1.37.25,2.05.04.44.08.87.11,1.31l.06.75c.04.42.07.83.09,1.24.06,1.13.09,2.24.09,3.29,0,36.9-16.75,70.8-45.96,93.04-.21.17-.42.35-.63.53l-.66.62c-.11.11-.23.23-.34.35l-.3.31c-.12.14-.27.31-.42.49l-.12.15c-.17.2-.33.41-.49.63l-.06.08c-.45.62-.87,1.27-1.24,1.95,3.58,3.29,5.8,8.02,5.8,13.29,0,6.25-3.19,11.76-8.03,15v18.44H84.31Z"/>
        <path class="cls-1" d="m84.31,378.31v-18.44c-4.84-3.24-8.03-8.75-8.03-15,0-5.29,2.23-10.02,5.82-13.31-.95-1.78-2.18-3.39-3.63-4.74-.68-.52-1.35-1.05-2.01-1.58l-.23-.18-4.37-2.88v-.75c-25.47-22.24-39.98-54.04-39.98-87.99,0-23.76,14.97-59.15,44.5-105.19,18.7-29.17,39.28-56.38,51.88-72.46-.09-.07-.17-.14-.25-.21-.51-.44-1.03-.9-1.53-1.39-.25-.25-.5-.5-.75-.75-.42-.44-.83-.89-1.22-1.34-.3-.35-.6-.71-.89-1.08-.33-.42-.64-.83-.93-1.25-.19-.28-.39-.55-.58-.84-.08-.11-.15-.22-.22-.33h0c-3.24-5.05-4.94-10.87-4.94-16.85,0-17.23,14.02-31.24,31.24-31.24,5.76,0,11.4,1.6,16.33,4.63h0c.18.1.35.21.53.33.35.22.68.44,1,.66.62.43,1.18.85,1.73,1.29.25.2.51.43.77.65l.11.09c.36.31.72.64,1.08.98l.07.07c.25.23.49.47.73.71.51.53,1.02,1.09,1.51,1.66.2.23.38.46.56.7l.08.1c.35.44.69.89,1.01,1.35l.08.11c.15.21.3.43.45.65.43.65.83,1.31,1.24,2.04.15.26.28.51.41.76.33.62.61,1.21.87,1.81.11.24.21.45.29.66.3.73.59,1.51.87,2.37.08.24.15.49.23.74.22.74.41,1.47.56,2.17.04.17.08.33.11.49.17.85.31,1.72.42,2.7.03.24.05.48.07.71.08.91.12,1.71.13,2.49v.33c0,9.2-4.04,17.67-10.64,23.47,25.72,32.73,81.33,107.62,94.06,158.22l.05.22c.25,1.01.51,2.1.75,3.18l.07.34c.22,1.03.42,2.03.61,3.02.03.18.12.69.12.69.16.89.31,1.78.43,2.66.04.27.07.54.1.82l.06.45c.09.69.18,1.37.25,2.05.04.44.08.87.11,1.31l.06.75c.04.42.07.83.09,1.24.06,1.13.09,2.24.09,3.29,0,36.9-16.75,70.8-45.96,93.04-.21.17-.42.35-.63.53l-.66.62c-.11.11-.23.23-.34.35l-.3.31c-.12.14-.27.31-.42.49l-.12.15c-.17.2-.33.41-.49.63l-.06.08c-.45.62-.87,1.27-1.24,1.95,3.58,3.29,5.8,8.02,5.8,13.29,0,6.25-3.19,11.76-8.03,15v18.44H84.31Z"/>
      </g>
    </g>
    <g>
      <g>
        <path class="cls-4" d="m235.24,613.34H60.26c-5.88,0-9.59,6.34-6.7,11.46l16.92,20.44h154.53l16.93-20.44c2.89-5.12-.81-11.46-6.69-11.46Z"/>
        <path class="cls-2" d="m285.99,719.77c0-10.49-5.69-19.66-14.15-24.58-.06-.03-.12-.06-.18-.1l.18-.16c-21.66-11.9-37.89-26.91-47.26-49.68H70.91c-9.37,22.78-25.61,37.78-47.26,49.68l.18.16c-.06.03-.12.06-.18.1-8.46,4.92-14.15,14.09-14.15,24.58,0,15.7,12.73,28.42,28.42,28.42h221.72v-.11c14.72-1.07,26.35-13.32,26.35-28.32Z"/>
        <path class="cls-4" d="m259.64,748.19H37.92c-5.2,0-10.08,1.4-14.28,3.84-8.46,4.92-14.15,14.09-14.15,24.58h278.57c0-15.7-12.73-28.42-28.42-28.42Z"/>
        <polygon class="cls-2" points="148.78 776.61 9.5 776.61 9.5 805.04 148.78 805.04 288.07 805.04 288.07 776.61 148.78 776.61"/>
        <path class="cls-2" d="m219.92,613.34c-21.52-48.7-34.24-104.19-36.27-161.11,1.09-9.01,8.75-15.99,18.06-15.99h-107.95c9.31,0,16.97,6.98,18.06,15.99-2.06,57.37-15.09,111.9-37.12,161.11h145.21Z"/>
        <path class="cls-6" d="m24.15,718.71c0-9.47,5.25-17.72,12.99-22-11.11.42-20,9.54-20,20.76,0,9.68,6.62,17.79,15.58,20.11-5.24-4.61-8.57-11.34-8.57-18.87Z"/>
        <path class="cls-4" d="m224.89,396.52H71.33c-10.97,0-19.86,8.89-19.86,19.86s8.8,19.76,19.7,19.85h0s152.99,0,152.99,0c1.48,0,2.92-.18,4.32-.48,8.89-1.97,15.54-9.89,15.54-19.38s-6.07-19.86-19.13-19.86Z"/>
        <path class="cls-2" d="m216.7,368.31H78.79c-7.86,0-14.23,6.37-14.23,14.22s6.37,14.22,14.23,14.22h137.91v-.06c.67-.05,1.34-.14,1.98-.28,6.37-1.41,11.13-7.08,11.13-13.88s-4.71-14.22-13.11-14.22Z"/>
      </g>
      <circle class="cls-2" cx="147.19" cy="31.74" r="21.24" transform="translate(82.48 167.7) rotate(-76.72)"/>
      <path class="cls-2" d="m254.62,233.43c0-59.03-106.88-187.2-106.88-187.2,0,0-106.88,128.18-106.88,187.2,0,33.7,15.61,63.74,39.98,83.33v.03c.13.09.26.19.39.28.86.69,1.72,1.38,2.61,2.05,5.8,5.16,9.46,12.88,9.46,21.2v28.01h108.87v-28.01c0-8.79,3.95-16.63,10.32-21.72h0c25.71-19.52,42.12-50.39,42.12-85.16Z"/>
      <path class="cls-4" d="m202.18,352.9h-108.87c-4.44,0-8.03-3.6-8.03-8.03s3.6-8.03,8.03-8.03h108.87c4.44,0,8.03,3.6,8.03,8.03s-3.6,8.03-8.03,8.03Z"/>
      <path class="cls-5" d="m212.5,318.59c25.71-19.52,42.12-50.39,42.12-85.16,0-7.11-1.56-15.22-4.29-23.99-.16.52-35.02,113.2-157.02,128.77h108.99c.58-7.93,4.34-14.94,10.2-19.62Z"/>
      <g>
        <path class="cls-4" d="m158.31,13.65c2.11,3.3,3.34,7.23,3.34,11.44,0,11.73-9.51,21.24-21.24,21.24-4.07,0-7.88-1.15-11.11-3.14,3.77,5.89,10.38,9.8,17.89,9.8,11.73,0,21.24-9.51,21.24-21.24,0-7.65-4.05-14.36-10.13-18.1Z"/>
        <path class="cls-6" d="m129.68,33.72c0-10.35,8.39-18.75,18.75-18.75,6.05,0,11.43,2.87,14.86,7.32-3.24-5.62-9.3-9.4-16.25-9.4-10.35,0-18.75,8.39-18.75,18.75,0,4.3,1.45,8.26,3.89,11.43-1.58-2.75-2.49-5.94-2.49-9.34Z"/>
      </g>
      <path class="cls-6" d="m158.56,74.53c-7.93-10.25-13.23-16.61-13.23-16.61,0,0-35.2,42.21-59.94,84.5,19.06-27.67,44.06-50.91,73.18-67.89Z"/>
      <path class="cls-6" d="m62.43,417.5c0-6.75,3.74-12.63,9.26-15.69-7.92.3-14.26,6.8-14.26,14.8,0,6.9,4.72,12.69,11.11,14.34-3.74-3.28-6.11-8.09-6.11-13.46Z"/>
    </g>
  </g>
</svg>