<?xml version="1.0" encoding="UTF-8"?>
<svg id="Capa_2" data-name="Capa 2" xmlns="http://www.w3.org/2000/svg" viewBox="0 0 387 742.58">
  <defs>
    <style>
      .cls-1 {
        fill: #fefefe;
      }

      .cls-1, .cls-2, .cls-3, .cls-4, .cls-5, .cls-6 {
        stroke-width: 0px;
      }

      .cls-2 {
        fill: #b8babb;
      }

      .cls-7 {
        fill: none;
        stroke: #fff;
        stroke-miterlimit: 10;
      }

      .cls-4 {
        fill: #dee0e0;
      }

      .cls-5 {
        fill: #e3e6e8;
      }

      .cls-6 {
        fill: #cecece;
      }
    </style>
  </defs>
  <g id="Icon">
    <path class="cls-1" d="m92.12,511.05c-.28.33-.55.65-.83.98.28-.33.55-.65.83-.98Z"/>
    <g>
      <g>
        <path class="cls-3" d="m.5,742.08v-36.45c0-10.08,4.22-19.64,11.39-26.45-7.01-6.65-11.39-16.04-11.39-26.44,0-23.22,17.77-33.45,32.04-41.67,1.38-.79,2.75-1.59,4.1-2.38,6.25-3.7,12.36-7.8,18.17-12.19,5.78-4.37,11.37-9.12,16.62-14.12,2.69-2.56,5.34-5.23,7.88-7.94.65-.69,4.38-4.91,6.83-7.69l2.99-3.39h208.75l2.99,3.39c2.45,2.78,6.18,7,6.83,7.7,2.53,2.71,5.18,5.38,7.87,7.94,5.25,5,10.85,9.75,16.62,14.12,5.8,4.39,11.92,8.49,18.16,12.19,1.35.8,2.72,1.59,4.1,2.38,14.28,8.22,32.04,18.46,32.04,41.67,0,10.4-4.38,19.8-11.39,26.45,7.01,6.65,11.39,16.04,11.39,26.45v36.45H.5Z"/>
        <path class="cls-7" d="m.5,742.08v-36.45c0-10.08,4.22-19.64,11.39-26.45-7.01-6.65-11.39-16.04-11.39-26.44,0-23.22,17.77-33.45,32.04-41.67,1.38-.79,2.75-1.59,4.1-2.38,6.25-3.7,12.36-7.8,18.17-12.19,5.78-4.37,11.37-9.12,16.62-14.12,2.69-2.56,5.34-5.23,7.88-7.94.65-.69,4.38-4.91,6.83-7.69l2.99-3.39h208.75l2.99,3.39c2.45,2.78,6.18,7,6.83,7.7,2.53,2.71,5.18,5.38,7.87,7.94,5.25,5,10.85,9.75,16.62,14.12,5.8,4.39,11.92,8.49,18.16,12.19,1.35.8,2.72,1.59,4.1,2.38,14.28,8.22,32.04,18.46,32.04,41.67,0,10.4-4.38,19.8-11.39,26.45,7.01,6.65,11.39,16.04,11.39,26.45v36.45H.5Z"/>
      </g>
      <g>
        <path class="cls-3" d="m89.22,583.17l-19.32-23.33-.44-.78c-2.07-3.67-2.7-7.82-1.9-11.78-14.3-8.5-23.58-24.15-23.58-41.29,0-1.49-.01-2.98-.02-4.48-.04-4.7-.07-9.56.23-14.5v-.02c1.74-53.56,24.78-105.6,63.25-142.81,7.85-7.59,16.35-14.31,24.58-20.82,10.4-8.22,20.22-15.98,28.66-25.24,6.64-7.4,11.29-13.56,12.57-15.29,10.38-16.59,17.08-35.08,19.75-54.31-10.3,7.92-23.13,12.51-36.74,12.51-5.05,0-10.11-.65-15.03-1.94-1.1-.29-2.1-.62-2.98-.9-.84-.28-1.63-.54-2.16-.64-1.4-.28-2.9-.42-4.45-.42-1.74,0-3.46.18-5.13.54-16.4,4.34-30.5,15.38-38.71,30.33l-1.91,3.48-3.78,1.22c-4.33,1.4-8.85,2.11-13.44,2.11h0c-1.15,0-2.31-.04-3.46-.13-21.08-1.63-38.35-18.75-40.15-39.81-1-11.63,2.56-22.95,10.01-31.87.04-.05,83.99-105.39,83.99-105.39,5.71-7.67,14.64-17.42,29.13-20.14,6.72-23.65,23.42-43.45,45.79-53.83,1.97-.91,4.05-1.38,6.2-1.38.71,0,1.42.05,2.1.15l12.68-20.63.05,35.28v38.58c11.86,2.26,30.26,7.18,39.17,10.79,15.73,6.37,30.14,14.48,42.84,24.09,26.36,19.94,46.8,46.62,59.11,77.15,15.4,38.19,16.78,82.88,3.88,125.85-2.38,7.93-4.59,16.28-6.57,24.81-.66,2.87-1.33,5.91-2.06,9.45l.13.03c-7.54,36.04-11.52,77.02-11.52,118.52,0,10.83.36,22.24,1.07,33.9.13,2.08.26,4.16.41,6.24l.03.45v.45c-.3,16.42-9.18,30.86-22.28,39.04,1.1,4.22.54,8.72-1.69,12.67l-.44.78-19.32,23.33H89.22Z"/>
        <path class="cls-7" d="m89.22,583.17l-19.32-23.33-.44-.78c-2.07-3.67-2.7-7.82-1.9-11.78-14.3-8.5-23.58-24.15-23.58-41.29,0-1.49-.01-2.98-.02-4.48-.04-4.7-.07-9.56.23-14.5v-.02c1.74-53.56,24.78-105.6,63.25-142.81,7.85-7.59,16.35-14.31,24.58-20.82,10.4-8.22,20.22-15.98,28.66-25.24,6.64-7.4,11.29-13.56,12.57-15.29,10.38-16.59,17.08-35.08,19.75-54.31-10.3,7.92-23.13,12.51-36.74,12.51-5.05,0-10.11-.65-15.03-1.94-1.1-.29-2.1-.62-2.98-.9-.84-.28-1.63-.54-2.16-.64-1.4-.28-2.9-.42-4.45-.42-1.74,0-3.46.18-5.13.54-16.4,4.34-30.5,15.38-38.71,30.33l-1.91,3.48-3.78,1.22c-4.33,1.4-8.85,2.11-13.44,2.11h0c-1.15,0-2.31-.04-3.46-.13-21.08-1.63-38.35-18.75-40.15-39.81-1-11.63,2.56-22.95,10.01-31.87.04-.05,83.99-105.39,83.99-105.39,5.71-7.67,14.64-17.42,29.13-20.14,6.72-23.65,23.42-43.45,45.79-53.83,1.97-.91,4.05-1.38,6.2-1.38.71,0,1.42.05,2.1.15l12.68-20.63.05,35.28v38.58c11.86,2.26,30.26,7.18,39.17,10.79,15.73,6.37,30.14,14.48,42.84,24.09,26.36,19.94,46.8,46.62,59.11,77.15,15.4,38.19,16.78,82.88,3.88,125.85-2.38,7.93-4.59,16.28-6.57,24.81-.66,2.87-1.33,5.91-2.06,9.45l.13.03c-7.54,36.04-11.52,77.02-11.52,118.52,0,10.83.36,22.24,1.07,33.9.13,2.08.26,4.16.41,6.24l.03.45v.45c-.3,16.42-9.18,30.86-22.28,39.04,1.1,4.22.54,8.72-1.69,12.67l-.44.78-19.32,23.33H89.22Z"/>
      </g>
    </g>
    <g>
      <path class="cls-2" d="m303.23,542.5H85.04c-5.47,0-8.92,5.9-6.23,10.67l15.75,19.01h199.16l15.75-19.02c2.69-4.77-.76-10.66-6.23-10.66Z"/>
      <path class="cls-2" d="m350.69,678.2H37.58c-4.84,0-9.38,1.3-13.28,3.57-7.87,4.58-13.16,13.11-13.16,22.87h366c0-14.61-11.84-26.45-26.45-26.45Z"/>
      <polygon class="cls-4" points="245.99 704.65 11.13 704.65 11.13 731.09 245.99 731.09 377.13 731.09 377.13 704.65 245.99 704.65"/>
      <path class="cls-4" d="m345.9,616.3c-6.61-3.91-12.99-8.19-19.11-12.82-6.1-4.62-11.94-9.58-17.48-14.86-2.84-2.7-5.6-5.49-8.28-8.35-1.04-1.11-7.03-7.92-7.03-7.92H94.28s-5.99,6.8-7.03,7.92c-2.68,2.86-5.44,5.65-8.28,8.35-5.54,5.28-11.38,10.24-17.48,14.86-6.12,4.63-12.5,8.91-19.11,12.82-14.34,8.48-31.24,16.15-31.24,35.45,0,14.61,11.84,26.45,26.45,26.45h313.11c14.61,0,26.45-11.84,26.45-26.45,0-19.3-16.89-26.97-31.24-35.45Z"/>
      <path class="cls-5" d="m24.96,650.6c0-8.81,4.88-16.48,12.08-20.47-10.34.4-18.61,8.88-18.61,19.31,0,9.01,6.16,16.56,14.5,18.71-4.88-4.29-7.98-10.55-7.98-17.56Z"/>
      <path class="cls-4" d="m347.51,190.4c-11.61-28.79-31.12-54.19-55.87-72.91-12.41-9.39-26.14-16.95-40.56-22.79-13.38-5.42-45.46-12.7-45.46-11.04v-47.6c0-3.48-3.62-5.82-6.78-4.35-21.53,9.99-37.33,29.94-41.91,53.94l.04.09s-.04,0-.06,0c-12.53,0-21.37,6.32-29.27,16.98,0,0-84.2,105.65-84.2,105.66-5.5,6.56-8.57,15.24-7.76,24.65,1.4,16.28,14.66,29.44,30.96,30.7,4.58.35,8.99-.21,13.05-1.52,9.45-17.2,25.69-30.15,45.13-35.23,2.45-.55,4.96-.82,7.48-.82,2.15,0,4.29.19,6.4.61,1.95.39,3.8,1.18,5.72,1.68,4.08,1.07,8.29,1.61,12.5,1.61,22.04,0,40.73-14.19,47.55-33.91l.03.06c.32,4.01.49,8.07.49,12.17,0,29.08-8.38,56.19-22.81,79.12-1.3,1.78-6.23,8.35-13.45,16.4-16.03,17.58-36.64,30.03-53.68,46.51-36.88,35.67-58.62,85.01-60.21,136.19,0,.02,0,.04,0,.06-.37,6.11-.19,12.24-.19,18.36,0,17.32,11.6,31.92,27.45,36.48,5.35,1.54,16.52,1.02,16.52,1.02h196.44c20.21,0,36.62-16.2,36.98-36.32-.15-2.11-.29-4.23-.42-6.35-.69-11.42-1.09-22.92-1.09-34.51,0-42.38,4.05-87.94,13.85-130.25,2-8.63,4.24-17.13,6.73-25.43,11.65-38.81,11.68-81.39-3.58-119.23Z"/>
      <path class="cls-2" d="m98.72,542.5h196.44c20.21,0,36.62-16.2,36.98-36.32-.15-2.11-.29-4.23-.42-6.35-.69-11.42-1.09-22.92-1.09-34.51,0-39.16,3.47-81.04,11.73-120.56-12.75,48.15-67.69,196.73-260.17,196.73,2.11.61,5.12.89,8,1.02h8.52Z"/>
      <path class="cls-6" d="m179.95,83.54h25.71v-47.49s-29.06,47.49-25.71,47.49Z"/>
      <path class="cls-5" d="m82.2,168.89c-16.94,21.25-33.15,41.6-33.15,41.6-4.64,5.54-7.23,12.86-6.55,20.8.85,9.94,6.96,18.47,15.48,22.85-.04-1.36-.06-2.73-.06-4.1,0-29.97,8.94-57.85,24.28-81.14Z"/>
    </g>
  </g>
</svg>