<?xml version="1.0" encoding="UTF-8"?>
<svg id="Capa_2" data-name="Capa 2" xmlns="http://www.w3.org/2000/svg" viewBox="0 0 308.79 821">
  <defs>
    <style>
      .cls-1 {
        fill: none;
        stroke: #fff;
        stroke-miterlimit: 10;
      }

      .cls-2, .cls-3, .cls-4, .cls-5, .cls-6 {
        stroke-width: 0px;
      }

      .cls-3 {
        fill: #b0b0af;
      }

      .cls-4 {
        fill: #c6c3c0;
      }

      .cls-5 {
        fill: #daddde;
      }

      .cls-6 {
        fill: #d5d4d1;
      }
    </style>
  </defs>
  <g id="Icon">
    <g>
      <g>
        <path class="cls-2" d="m.5,820.5v-30.8c0-7.78,2.97-15.19,8.1-20.8-5.03-5.48-8.1-12.79-8.1-20.79,0-19.49,15.18-28.23,26.26-34.62,1.08-.62,2.15-1.24,3.21-1.86,4.85-2.87,9.59-6.04,14.08-9.45,4.48-3.39,8.82-7.08,12.89-10.95,2.08-1.98,4.14-4.05,6.11-6.16.45-.48,3.06-3.42,5.32-6l2.99-3.39h166.07l2.99,3.39c2.27,2.58,4.88,5.52,5.33,6,1.97,2.1,4.02,4.17,6.1,6.16,4.07,3.88,8.41,7.56,12.89,10.95,4.5,3.4,9.23,6.58,14.08,9.45,1.06.62,2.13,1.24,3.21,1.86,11.08,6.38,26.26,15.13,26.26,34.62,0,8.01-3.07,15.31-8.1,20.79,5.03,5.48,8.1,12.79,8.1,20.79v30.8H.5Z"/>
        <path class="cls-1" d="m.5,820.5v-30.8c0-7.78,2.97-15.19,8.1-20.8-5.03-5.48-8.1-12.79-8.1-20.79,0-19.49,15.18-28.23,26.26-34.62,1.08-.62,2.15-1.24,3.21-1.86,4.85-2.87,9.59-6.04,14.08-9.45,4.48-3.39,8.82-7.08,12.89-10.95,2.08-1.98,4.14-4.05,6.11-6.16.45-.48,3.06-3.42,5.32-6l2.99-3.39h166.07l2.99,3.39c2.27,2.58,4.88,5.52,5.33,6,1.97,2.1,4.02,4.17,6.1,6.16,4.07,3.88,8.41,7.56,12.89,10.95,4.5,3.4,9.23,6.58,14.08,9.45,1.06.62,2.13,1.24,3.21,1.86,11.08,6.38,26.26,15.13,26.26,34.62,0,8.01-3.07,15.31-8.1,20.79,5.03,5.48,8.1,12.79,8.1,20.79v30.8H.5Z"/>
      </g>
      <g>
        <path class="cls-2" d="m71.39,695.54l-15.95-19.26-.44-.78c-2.76-4.89-2.71-10.71.12-15.55,2.83-4.85,7.88-7.74,13.49-7.74h1.06c18.87-43.95,30.63-91.06,34.96-140.12.27-4.79.41-9.1.41-13.19,0-18.57-2.23-37.1-6.64-55.06l-3.04-12.38h118.95l-3.04,12.38c-4.4,17.96-6.64,36.49-6.64,55.06,0,3.89.12,8.05.38,12.71,4.22,49.15,16,97.62,34.14,140.61h1.02c5.61,0,10.66,2.89,13.49,7.74s2.88,10.66.12,15.55l-.44.78-15.95,19.27H71.39Z"/>
        <path class="cls-1" d="m71.39,695.54l-15.95-19.26-.44-.78c-2.76-4.89-2.71-10.71.12-15.55,2.83-4.85,7.88-7.74,13.49-7.74h1.06c18.87-43.95,30.63-91.06,34.96-140.12.27-4.79.41-9.1.41-13.19,0-18.57-2.23-37.1-6.64-55.06l-3.04-12.38h118.95l-3.04,12.38c-4.4,17.96-6.64,36.49-6.64,55.06,0,3.89.12,8.05.38,12.71,4.22,49.15,16,97.62,34.14,140.61h1.02c5.61,0,10.66,2.89,13.49,7.74s2.88,10.66.12,15.55l-.44.78-15.95,19.27H71.39Z"/>
      </g>
      <g>
        <path class="cls-2" d="m75.18,451.43v-2.2c-8.48-3.87-14.41-12.45-14.41-22.33,0-8.19,4.04-15.46,10.23-19.92-.38-1.56-.58-3.18-.58-4.84,0-11.25,9.16-20.41,20.41-20.41h3.16c-1.04-2.11-1.63-4.49-1.63-7,0-3.64,1.23-7.01,3.31-9.71-33.44-97.67-39.68-115.91-40.91-119.61h-.03c-1.14-3.37-1.78-7.4-1.78-11.33,0-12.75,6.4-24.71,17.11-31.99,6.08-4.13,12.31-5.65,18.17-6.86,2.35-.48,4.72-.94,7.1-1.37-.17-1.05-.26-2.13-.26-3.22,0-11.25,9.15-20.41,20.41-20.41h.24l7.61-23.27-31.63,9.38v-75.53l31.63,9.38-12.69-38.78,44-20.89,44,20.89-12.64,38.61,31.08-9.2v75.52l-31.08-9.2,7.34,22.44,4.04.89c.29.06.58.14.86.21,8.99,1.94,15.46,10.25,15.46,19.96,0,1.09-.09,2.17-.26,3.22,2.38.43,4.75.89,7.1,1.38,5.86,1.2,12.09,2.72,18.17,6.86,10.72,7.29,17.11,19.24,17.11,31.99,0,3.94-.63,7.97-1.78,11.35h0c-.61,1.79-3.77,11.04-21.57,63.03l-16.56,48.38h.03l-2.9,8.55c1.93,2.64,3.06,5.89,3.06,9.35,0,2.51-.59,4.89-1.63,7,12.24.02,19.55,10.39,19.55,20.41,0,.86-.06,1.71-.16,2.55,8.72,4.19,13.33,13.41,13.33,22.21,0,11.4-8.08,21.47-19.21,23.94-1.77.39-3.56.59-5.32.59H75.18Z"/>
        <path class="cls-1" d="m75.18,451.43v-2.2c-8.48-3.87-14.41-12.45-14.41-22.33,0-8.19,4.04-15.46,10.23-19.92-.38-1.56-.58-3.18-.58-4.84,0-11.25,9.16-20.41,20.41-20.41h3.16c-1.04-2.11-1.63-4.49-1.63-7,0-3.64,1.23-7.01,3.31-9.71-33.44-97.67-39.68-115.91-40.91-119.61h-.03c-1.14-3.37-1.78-7.4-1.78-11.33,0-12.75,6.4-24.71,17.11-31.99,6.08-4.13,12.31-5.65,18.17-6.86,2.35-.48,4.72-.94,7.1-1.37-.17-1.05-.26-2.13-.26-3.22,0-11.25,9.15-20.41,20.41-20.41h.24l7.61-23.27-31.63,9.38v-75.53l31.63,9.38-12.69-38.78,44-20.89,44,20.89-12.64,38.61,31.08-9.2v75.52l-31.08-9.2,7.34,22.44,4.04.89c.29.06.58.14.86.21,8.99,1.94,15.46,10.25,15.46,19.96,0,1.09-.09,2.17-.26,3.22,2.38.43,4.75.89,7.1,1.38,5.86,1.2,12.09,2.72,18.17,6.86,10.72,7.29,17.11,19.24,17.11,31.99,0,3.94-.63,7.97-1.78,11.35h0c-.61,1.79-3.77,11.04-21.57,63.03l-16.56,48.38h.03l-2.9,8.55c1.93,2.64,3.06,5.89,3.06,9.35,0,2.51-.59,4.89-1.63,7,12.24.02,19.55,10.39,19.55,20.41,0,.86-.06,1.71-.16,2.55,8.72,4.19,13.33,13.41,13.33,22.21,0,11.4-8.08,21.47-19.21,23.94-1.77.39-3.56.59-5.32.59H75.18Z"/>
      </g>
      <g>
        <path class="cls-2" d="m154.4,51.58c-.73,0-1.45-.04-2.29-.11l-.58-.06c-.77-.09-1.48-.2-2.16-.33-.18-.04-.35-.07-.51-.11-.57-.12-1.14-.27-1.71-.44l-.5-.15c-.73-.24-1.38-.47-2-.73-.17-.07-.36-.16-.56-.24-.52-.23-1.01-.47-1.49-.72-.22-.11-.4-.21-.58-.31-.52-.29-1.07-.62-1.65-1-.2-.13-.4-.27-.6-.41-.45-.32-.85-.62-1.24-.93-.25-.2-.45-.36-.65-.53-.42-.35-.82-.72-1.22-1.11-.22-.22-.42-.42-.62-.62-.36-.38-.69-.74-1.01-1.11-.24-.27-.48-.58-.73-.89-.25-.31-.5-.65-.74-.99-.19-.26-.35-.5-.51-.74l-20.89-31.34,18.08,9.01c3.46-10.02,12.98-17.23,24.15-17.23,4.72,0,9.36,1.32,13.4,3.81l-.06.09.08-.08c.13.08.27.17.4.26.26.17.53.35.8.53.47.33.94.68,1.4,1.05.22.18.45.37.67.57.34.29.64.57.93.84l.08.07c.18.17.37.35.54.53.46.48.87.93,1.27,1.39.17.2.33.4.48.6.33.42.6.78.86,1.15l.06.09c.13.18.26.37.38.56.34.52.68,1.08,1.01,1.65.1.18.21.38.31.58.28.53.51,1.02.73,1.51.08.18.17.37.25.56.24.57.47,1.21.7,1.91.07.21.13.42.2.64.17.56.32,1.14.44,1.71.04.15.07.31.1.46.14.67.25,1.39.34,2.18.02.18.04.38.06.58.05.52.08,1.01.1,1.48v.11s.02.71.02.71c0,14.09-11.46,25.54-25.54,25.54h0Z"/>
        <path class="cls-1" d="m154.4,51.58c-.73,0-1.45-.04-2.29-.11l-.58-.06c-.77-.09-1.48-.2-2.16-.33-.18-.04-.35-.07-.51-.11-.57-.12-1.14-.27-1.71-.44l-.5-.15c-.73-.24-1.38-.47-2-.73-.17-.07-.36-.16-.56-.24-.52-.23-1.01-.47-1.49-.72-.22-.11-.4-.21-.58-.31-.52-.29-1.07-.62-1.65-1-.2-.13-.4-.27-.6-.41-.45-.32-.85-.62-1.24-.93-.25-.2-.45-.36-.65-.53-.42-.35-.82-.72-1.22-1.11-.22-.22-.42-.42-.62-.62-.36-.38-.69-.74-1.01-1.11-.24-.27-.48-.58-.73-.89-.25-.31-.5-.65-.74-.99-.19-.26-.35-.5-.51-.74l-20.89-31.34,18.08,9.01c3.46-10.02,12.98-17.23,24.15-17.23,4.72,0,9.36,1.32,13.4,3.81l-.06.09.08-.08c.13.08.27.17.4.26.26.17.53.35.8.53.47.33.94.68,1.4,1.05.22.18.45.37.67.57.34.29.64.57.93.84l.08.07c.18.17.37.35.54.53.46.48.87.93,1.27,1.39.17.2.33.4.48.6.33.42.6.78.86,1.15l.06.09c.13.18.26.37.38.56.34.52.68,1.08,1.01,1.65.1.18.21.38.31.58.28.53.51,1.02.73,1.51.08.18.17.37.25.56.24.57.47,1.21.7,1.91.07.21.13.42.2.64.17.56.32,1.14.44,1.71.04.15.07.31.1.46.14.67.25,1.39.34,2.18.02.18.04.38.06.58.05.52.08,1.01.1,1.48v.11s.02.71.02.71c0,14.09-11.46,25.54-25.54,25.54h0Z"/>
      </g>
    </g>
    <g>
      <g>
        <path class="cls-3" d="m240.22,661.98H68.66c-4.3,0-7.01,4.64-4.9,8.39l12.38,14.95h156.6l12.38-14.96c2.11-3.75-.6-8.38-4.9-8.38Z"/>
        <path class="cls-3" d="m277.54,768.68H31.34c-3.81,0-7.38,1.02-10.45,2.81-6.19,3.6-10.35,10.31-10.35,17.99h287.79c0-11.48-9.31-20.8-20.8-20.8Z"/>
        <polygon class="cls-6" points="195.21 789.48 10.54 789.48 10.54 810.27 195.21 810.27 298.33 810.27 298.33 789.48 195.21 789.48"/>
        <path class="cls-6" d="m273.77,720.01c-5.19-3.07-10.21-6.44-15.03-10.08-4.8-3.63-9.39-7.53-13.75-11.68-2.23-2.13-4.41-4.32-6.51-6.57-.82-.88-5.53-6.23-5.53-6.23H75.92s-4.71,5.35-5.53,6.23c-2.11,2.25-4.28,4.44-6.51,6.57-4.36,4.15-8.95,8.05-13.75,11.68-4.81,3.64-9.83,7.01-15.03,10.08-11.28,6.67-24.56,12.7-24.56,27.87,0,11.48,9.31,20.8,20.8,20.8h246.2c11.48,0,20.8-9.31,20.8-20.8,0-15.17-13.28-21.21-24.56-27.87Z"/>
        <path class="cls-5" d="m21.42,747.12c0-6.93,3.84-12.96,9.5-16.09-8.13.31-14.63,6.98-14.63,15.19,0,7.08,4.85,13.02,11.4,14.71-3.84-3.37-6.27-8.3-6.27-13.81Z"/>
        <path class="cls-3" d="m223.25,412.15H85.35c-8.02,0-14.53,6.51-14.53,14.53s6.44,14.46,14.41,14.52h0s137.49,0,137.49,0c1.09,0,2.14-.13,3.16-.35,6.51-1.44,11.37-7.24,11.37-14.18s-4.44-14.53-13.99-14.53Z"/>
        <path class="cls-5" d="m78.9,427.49c0-4.94,2.74-9.24,6.78-11.48-5.8.22-10.43,4.98-10.43,10.83,0,5.05,3.46,9.28,8.13,10.49-2.74-2.4-4.47-5.92-4.47-9.84Z"/>
        <path class="cls-6" d="m214.48,391.51h-123.61c-5.75,0-10.41,4.66-10.41,10.41s4.66,10.41,10.41,10.41h123.61v-.05c.49-.04.98-.1,1.45-.21,4.66-1.03,8.14-5.18,8.14-10.15s-3.45-10.41-9.6-10.41Z"/>
      </g>
      <path class="cls-6" d="m76.14,662.23h156.6c-20.11-45.52-33.12-97.15-37.65-150.16-.25-4.44-.41-8.91-.41-13.41,0-19.8,2.41-39.03,6.93-57.44h-93.45c4.51,18.41,6.93,37.64,6.93,57.44,0,4.68-.17,9.31-.43,13.92-4.66,52.99-17.97,103.76-38.51,149.65Z"/>
      <path class="cls-6" d="m245.88,233.85c0-9.52-4.9-18.39-12.74-23.72-4.5-3.06-9.3-4.25-14.56-5.33-6.36-1.31-12.75-2.41-19.18-3.32-11.99-1.7-24.07-2.7-36.18-3.02l-4.74-.11c-1.35,0-2.7,0-4.05.03-1.35-.02-2.7-.03-4.05-.03l-4.74.11c-12.1.32-24.19,1.33-36.18,3.02-6.43.91-12.82,2.02-19.18,3.32-5.26,1.08-10.06,2.27-14.56,5.33-7.84,5.33-12.73,14.2-12.73,23.72,0,2.68.41,5.66,1.25,8.13,0,0,29.67,86.66,43.83,128.03.93,3.39,1.43,6.95,1.43,10.63s-.52,7.41-1.5,10.87l93.43.3c-1.03-3.54-1.58-7.29-1.58-11.17,0-4.58.77-9.95,2.19-14.04h-.07c14.56-42.53,42.66-124.61,42.66-124.62.84-2.47,1.25-5.45,1.25-8.13Z"/>
      <path class="cls-3" d="m200.28,380.39h-92c-3.25,0-5.88-2.63-5.88-5.88s2.63-5.88,5.88-5.88h92c3.25,0,5.88,2.63,5.88,5.88s-2.63,5.88-5.88,5.88Z"/>
      <path class="cls-5" d="m135.31,207.84c-7.35.45-14.69,1.17-21.98,2.21-5.64.8-11.26,1.77-16.84,2.92-4.62.95-8.84,1.99-12.79,4.68-6.88,4.68-11.18,12.47-11.18,20.83,0,2.36.36,4.97,1.09,7.14,0,0,3.15,9.21,7.79,22.75,2.97-29.94,25.07-54.23,53.91-60.52Z"/>
      <path class="cls-6" d="m194.16,180h-78.64c-5.75,0-10.41,4.66-10.41,10.41s4.66,10.41,10.41,10.41h78.64v-.05c.49-.04.98-.1,1.45-.21,4.66-1.03,8.14-5.18,8.14-10.15s-3.45-10.41-9.59-10.41Z"/>
      <path class="cls-4" d="m195.29,180s-10.96,13.34-51.51,18.69l-17.74,1.65c-.24.01-.47.03-.7.04h.25l-2.73.25h70.17c.78,0,1.54-.09,2.27-.25,4.68-1.04,8.18-5.2,8.18-10.19s-3.5-9.15-8.18-10.19Z"/>
      <g>
        <polygon class="cls-6" points="170.62 104.79 186.44 56.43 154.69 41.36 122.94 56.43 138.81 104.97 101.75 93.98 101.75 115.71 101.75 120.98 101.75 142.71 138.81 131.72 122.94 180.26 154.69 195.33 186.44 180.26 170.62 131.9 207.13 142.71 207.13 120.98 207.13 115.71 207.13 93.98 170.62 104.79"/>
        <circle class="cls-6" cx="154.44" cy="25.82" r="15.54" transform="translate(104.22 174.13) rotate(-80.78)"/>
        <g>
          <path class="cls-3" d="m162.57,12.58c1.55,2.42,2.44,5.29,2.44,8.37,0,8.58-6.96,15.54-15.54,15.54-2.98,0-5.76-.84-8.13-2.29,2.76,4.31,7.59,7.17,13.09,7.17,8.58,0,15.54-6.96,15.54-15.54,0-5.6-2.96-10.51-7.41-13.24Z"/>
          <path class="cls-5" d="m141.63,27.26c0-7.57,6.14-13.71,13.71-13.71,4.43,0,8.36,2.1,10.87,5.35-2.37-4.11-6.81-6.88-11.89-6.88-7.57,0-13.71,6.14-13.71,13.71,0,3.15,1.06,6.05,2.84,8.36-1.16-2.01-1.82-4.35-1.82-6.84Z"/>
        </g>
        <path class="cls-4" d="m180.35,161.63s-33.65,17.14-57.41,18.63h63.51l-6.1-18.63Z"/>
      </g>
      <path class="cls-3" d="m234.21,272.26c-9.53,23.91-42.19,81.55-125.93,97.79h92.79c.28-1.21.6-2.38.98-3.45h-.07c2.39-6.97,5.14-15.02,8.07-23.58h-.07c6.61-19.3,15.78-46.11,24.23-70.77Z"/>
    </g>
  </g>
</svg>