<?xml version="1.0" encoding="UTF-8"?>
<svg id="Capa_2" data-name="Capa 2" xmlns="http://www.w3.org/2000/svg" viewBox="0 0 364.08 797">
  <defs>
    <style>
      .cls-1 {
        fill: #d0cdc9;
      }

      .cls-1, .cls-2, .cls-3, .cls-4 {
        stroke-width: 0px;
      }

      .cls-5 {
        fill: none;
        stroke: #fff;
        stroke-miterlimit: 10;
      }

      .cls-3 {
        fill: #abaaa8;
      }

      .cls-4 {
        fill: #daddde;
      }
    </style>
  </defs>
  <g id="Icon">
    <g>
      <g>
        <path class="cls-2" d="m.5,796.5v-34.79c0-9.4,3.85-18.33,10.4-24.8-6.42-6.31-10.4-15.09-10.4-24.78,0-22.12,17.54-32.23,30.35-39.6,1.29-.74,2.58-1.48,3.84-2.23,5.84-3.45,11.55-7.28,16.97-11.39,5.4-4.09,10.62-8.53,15.53-13.19,2.51-2.39,4.98-4.88,7.36-7.42.55-.58,3.68-4.12,6.39-7.2l2.99-3.39h196.24l2.99,3.39c2.71,3.08,5.84,6.61,6.39,7.2,2.38,2.54,4.85,5.03,7.36,7.42,4.9,4.67,10.13,9.11,15.53,13.2,5.42,4.1,11.13,7.93,16.97,11.38,1.26.75,2.55,1.49,3.84,2.23,12.81,7.38,30.35,17.48,30.35,39.6,0,9.69-3.99,18.47-10.4,24.79,6.42,6.32,10.4,15.1,10.4,24.79v34.79H.5Z"/>
        <path class="cls-5" d="m.5,796.5v-34.79c0-9.4,3.85-18.33,10.4-24.8-6.42-6.31-10.4-15.09-10.4-24.78,0-22.12,17.54-32.23,30.35-39.6,1.29-.74,2.58-1.48,3.84-2.23,5.84-3.45,11.55-7.28,16.97-11.39,5.4-4.09,10.62-8.53,15.53-13.19,2.51-2.39,4.98-4.88,7.36-7.42.55-.58,3.68-4.12,6.39-7.2l2.99-3.39h196.24l2.99,3.39c2.71,3.08,5.84,6.61,6.39,7.2,2.38,2.54,4.85,5.03,7.36,7.42,4.9,4.67,10.13,9.11,15.53,13.2,5.42,4.1,11.13,7.93,16.97,11.38,1.26.75,2.55,1.49,3.84,2.23,12.81,7.38,30.35,17.48,30.35,39.6,0,9.69-3.99,18.47-10.4,24.79,6.42,6.32,10.4,15.1,10.4,24.79v34.79H.5Z"/>
      </g>
      <g>
        <path class="cls-2" d="m83.99,647.54l-18.33-22.13-.44-.78c-2.95-5.23-2.9-11.45.13-16.63s8.42-8.28,14.42-8.28h2.52c27.86-64.52,43.14-136.27,44.44-208.54h-21.49v-1.97c-10.05-4.05-17.18-13.91-17.18-25.35,0-9.57,4.95-18.01,12.42-22.89-.65-2.1-1-4.33-1-6.63,0-11.81,9.18-21.51,20.78-22.35.17-.71.33-1.44.49-2.17-3.35-3.12-5.44-7.56-5.44-12.43,0-5.9,3.02-11.11,7.59-14.16-.02-2.53-.08-5.26-.18-8.27l-.34-10.33h.32c-2.07-60.48-21.48-117.18-56.41-164.56l-.34-.46-.88-1.53c-.37-.65-.74-1.29-1.11-1.93l-3.41-5.81,4.1-5.34c6.79-8.85,17.08-13.93,28.23-13.93,6.04,0,12,1.54,17.26,4.46.07.04.15.08.22.13,15.93-23.49,42.85-38.1,71.67-38.1s55.83,14.66,71.75,38.23c.15-.08.3-.17.44-.25,5.25-2.92,11.22-4.46,17.26-4.46,11.15,0,21.44,5.08,28.23,13.93l4.1,5.34-3.41,5.81c-.38.64-.75,1.29-1.11,1.93l-.88,1.53-.34.46c-36.75,49.84-56.26,110.21-56.43,174.58v.31c-.11,3.01-.17,5.73-.18,8.26,4.58,3.05,7.6,8.26,7.6,14.16,0,4.87-2.09,9.32-5.45,12.44.16.74.32,1.47.49,2.19,12.25,1.03,19.51,11.85,19.51,22.33,0,1.95-.26,3.85-.74,5.68,8.6,5,13.13,14.62,13.13,23.84,0,12.7-9,23.91-21.39,26.66-1.98.44-3.97.66-5.93.66h-10.25c1.25,72.86,16.17,144.62,43.38,208.54h2.49c6,0,11.39,3.09,14.42,8.28,3.03,5.18,3.08,11.4.13,16.62l-.44.78-18.33,22.14H83.99Z"/>
        <path class="cls-5" d="m83.99,647.54l-18.33-22.13-.44-.78c-2.95-5.23-2.9-11.45.13-16.63s8.42-8.28,14.42-8.28h2.52c27.86-64.52,43.14-136.27,44.44-208.54h-21.49v-1.97c-10.05-4.05-17.18-13.91-17.18-25.35,0-9.57,4.95-18.01,12.42-22.89-.65-2.1-1-4.33-1-6.63,0-11.81,9.18-21.51,20.78-22.35.17-.71.33-1.44.49-2.17-3.35-3.12-5.44-7.56-5.44-12.43,0-5.9,3.02-11.11,7.59-14.16-.02-2.53-.08-5.26-.18-8.27l-.34-10.33h.32c-2.07-60.48-21.48-117.18-56.41-164.56l-.34-.46-.88-1.53c-.37-.65-.74-1.29-1.11-1.93l-3.41-5.81,4.1-5.34c6.79-8.85,17.08-13.93,28.23-13.93,6.04,0,12,1.54,17.26,4.46.07.04.15.08.22.13,15.93-23.49,42.85-38.1,71.67-38.1s55.83,14.66,71.75,38.23c.15-.08.3-.17.44-.25,5.25-2.92,11.22-4.46,17.26-4.46,11.15,0,21.44,5.08,28.23,13.93l4.1,5.34-3.41,5.81c-.38.64-.75,1.29-1.11,1.93l-.88,1.53-.34.46c-36.75,49.84-56.26,110.21-56.43,174.58v.31c-.11,3.01-.17,5.73-.18,8.26,4.58,3.05,7.6,8.26,7.6,14.16,0,4.87-2.09,9.32-5.45,12.44.16.74.32,1.47.49,2.19,12.25,1.03,19.51,11.85,19.51,22.33,0,1.95-.26,3.85-.74,5.68,8.6,5,13.13,14.62,13.13,23.84,0,12.7-9,23.91-21.39,26.66-1.98.44-3.97.66-5.93.66h-10.25c1.25,72.86,16.17,144.62,43.38,208.54h2.49c6,0,11.39,3.09,14.42,8.28,3.03,5.18,3.08,11.4.13,16.62l-.44.78-18.33,22.14H83.99Z"/>
      </g>
      <g>
        <path class="cls-2" d="m182.04,57.55c-.83,0-1.63-.04-2.56-.12,0,0-.49-.05-.67-.07-.82-.09-1.62-.21-2.39-.37-.25-.05-.4-.09-.54-.12-.58-.12-1.25-.3-1.93-.5-.26-.08-.44-.13-.62-.19-.77-.25-1.5-.52-2.2-.8-.19-.08-.39-.17-.59-.26-.6-.26-1.14-.53-1.67-.81-.24-.12-.43-.22-.61-.32-.63-.35-1.26-.73-1.88-1.14-.24-.16-.48-.32-.71-.49-.46-.32-.91-.66-1.35-1.01-.23-.18-.48-.38-.73-.6-.45-.38-.92-.81-1.37-1.24-.24-.23-.46-.45-.68-.68-.4-.42-.77-.82-1.12-1.23-.27-.31-.54-.65-.8-.98-.3-.39-.58-.76-.85-1.14-.19-.27-.37-.53-.54-.78-.08-.11-.15-.23-.23-.34h0c-2.94-4.6-4.49-9.9-4.49-15.34,0-15.73,12.8-28.53,28.53-28.53,5.26,0,10.41,1.46,14.92,4.23h0c.16.09.32.19.47.3.36.23.65.42.94.62.54.38,1.06.76,1.55,1.16.24.19.47.39.7.59l.1.08c.36.32.68.61.99.9l.1.1c.22.21.43.41.64.62.45.46.91.96,1.36,1.49.21.25.37.45.53.66l.07.09c.32.41.62.81.92,1.23l.08.11c.14.19.28.39.41.59.39.59.76,1.2,1.13,1.87.12.21.23.42.33.62l.06.12c.27.53.53,1.06.77,1.61.08.17.16.34.24.53.31.74.57,1.45.82,2.22.08.25.16.5.23.76.18.6.34,1.23.48,1.87.05.19.09.37.12.56.14.69.26,1.49.36,2.38.03.24.05.45.07.66.01.12.02.25.03.37l.09.23v1.98c0,15.73-12.79,28.52-28.52,28.52h0Z"/>
        <path class="cls-5" d="m182.04,57.55c-.83,0-1.63-.04-2.56-.12,0,0-.49-.05-.67-.07-.82-.09-1.62-.21-2.39-.37-.25-.05-.4-.09-.54-.12-.58-.12-1.25-.3-1.93-.5-.26-.08-.44-.13-.62-.19-.77-.25-1.5-.52-2.2-.8-.19-.08-.39-.17-.59-.26-.6-.26-1.14-.53-1.67-.81-.24-.12-.43-.22-.61-.32-.63-.35-1.26-.73-1.88-1.14-.24-.16-.48-.32-.71-.49-.46-.32-.91-.66-1.35-1.01-.23-.18-.48-.38-.73-.6-.45-.38-.92-.81-1.37-1.24-.24-.23-.46-.45-.68-.68-.4-.42-.77-.82-1.12-1.23-.27-.31-.54-.65-.8-.98-.3-.39-.58-.76-.85-1.14-.19-.27-.37-.53-.54-.78-.08-.11-.15-.23-.23-.34h0c-2.94-4.6-4.49-9.9-4.49-15.34,0-15.73,12.8-28.53,28.53-28.53,5.26,0,10.41,1.46,14.92,4.23h0c.16.09.32.19.47.3.36.23.65.42.94.62.54.38,1.06.76,1.55,1.16.24.19.47.39.7.59l.1.08c.36.32.68.61.99.9l.1.1c.22.21.43.41.64.62.45.46.91.96,1.36,1.49.21.25.37.45.53.66l.07.09c.32.41.62.81.92,1.23l.08.11c.14.19.28.39.41.59.39.59.76,1.2,1.13,1.87.12.21.23.42.33.62l.06.12c.27.53.53,1.06.77,1.61.08.17.16.34.24.53.31.74.57,1.45.82,2.22.08.25.16.5.23.76.18.6.34,1.23.48,1.87.05.19.09.37.12.56.14.69.26,1.49.36,2.38.03.24.05.45.07.66.01.12.02.25.03.37l.09.23v1.98c0,15.73-12.79,28.52-28.52,28.52h0Z"/>
      </g>
    </g>
    <g>
      <path class="cls-1" d="m229.95,379.56c0,80.32,16.78,160.38,47.03,228.84H90.3c30.94-69.12,48.13-147.55,48.13-228.84h91.52Z"/>
      <path class="cls-3" d="m285.9,608.09H81.38c-5.13,0-8.36,5.53-5.84,10l14.76,17.82h186.68l14.76-17.83c2.52-4.47-.71-9.99-5.84-9.99Z"/>
      <path class="cls-3" d="m330.39,735.3H36.89c-4.54,0-8.79,1.22-12.45,3.35-7.38,4.29-12.34,12.29-12.34,21.44h343.08c0-13.69-11.1-24.79-24.79-24.79Z"/>
      <polygon class="cls-1" points="232.25 760.09 12.1 760.09 12.1 784.88 232.25 784.88 355.18 784.88 355.18 760.09 232.25 760.09"/>
      <path class="cls-1" d="m325.9,677.28c-6.19-3.66-12.18-7.68-17.91-12.02-5.72-4.33-11.19-8.98-16.39-13.93-2.66-2.53-5.25-5.15-7.76-7.83-.98-1.04-6.59-7.42-6.59-7.42H90.04s-5.62,6.38-6.59,7.42c-2.51,2.68-5.1,5.3-7.76,7.83-5.19,4.94-10.67,9.6-16.39,13.93-5.74,4.34-11.72,8.36-17.91,12.02-13.44,7.95-29.28,15.14-29.28,33.23,0,13.69,11.1,24.79,24.79,24.79h293.5c13.69,0,24.79-11.1,24.79-24.79,0-18.09-15.83-25.28-29.28-33.23Z"/>
      <path class="cls-4" d="m25.06,709.59c0-8.26,4.58-15.45,11.33-19.19-9.69.37-17.44,8.32-17.44,18.1,0,8.44,5.78,15.52,13.59,17.54-4.57-4.02-7.48-9.89-7.48-16.46Z"/>
      <path class="cls-3" d="m250.92,344.92H116.99c-9.57,0-17.32,7.75-17.32,17.32s7.68,17.24,17.18,17.31h0s133.43,0,133.43,0c1.29,0,2.55-.15,3.76-.42,7.75-1.72,13.56-8.63,13.56-16.9s-5.3-17.32-16.68-17.32Z"/>
      <path class="cls-4" d="m109.3,363.21c0-5.89,3.26-11.02,8.08-13.68-6.91.26-12.44,5.93-12.44,12.91,0,6.02,4.12,11.07,9.69,12.51-3.26-2.86-5.33-7.05-5.33-11.74Z"/>
      <path class="cls-1" d="m243.78,320.32h-120.28c-6.85,0-12.41,5.55-12.41,12.41s5.55,12.41,12.41,12.41h120.28v-.06c.59-.05,1.17-.12,1.73-.25,5.55-1.23,9.71-6.18,9.71-12.1s-4.11-12.41-11.44-12.41Z"/>
      <circle class="cls-3" cx="183.64" cy="122.4" r="76.47"/>
      <circle class="cls-1" cx="183.64" cy="27.41" r="18.53" transform="translate(127.17 204.29) rotate(-80.78)"/>
      <path class="cls-1" d="m293.38,89.47c-4.67-6.09-12.02-10.02-20.3-10.02-4.32,0-8.62,1.1-12.4,3.2-4.43,2.46-7.63,6.45-10.34,10.64-2.73,4.21-6.64,7.58-11.24,9.59-3.22,1.41-6.72,2.13-10.24,2.13-9.05,0-17.19-5.54-22.21-12.82-5.19-7.51-12.6-12.75-22.03-12.75-.28,0-.56.02-.84.03-.28,0-.56-.03-.84-.03-9.43,0-16.84,5.24-22.03,12.75-5.02,7.27-13.16,12.82-22.21,12.82-3.51,0-7.02-.72-10.24-2.13-4.6-2.01-8.51-5.38-11.24-9.59-2.71-4.19-5.91-8.18-10.34-10.64-3.78-2.1-8.08-3.2-12.4-3.2-8.27,0-15.62,3.93-20.3,10.02.59,1.01,1.17,2.03,1.75,3.05,37.26,50.53,58.37,112.93,58.55,180.49h-.16c.53,15.74.3,32.72-5.11,47.71h109.14c-5.41-14.99-5.64-31.96-5.11-47.71h0c.18-67.56,21.12-129.96,58.38-180.49.58-1.02,1.16-2.04,1.75-3.05Z"/>
      <g>
        <path class="cls-3" d="m193.34,11.63c1.84,2.88,2.91,6.3,2.91,9.98,0,10.23-8.29,18.52-18.52,18.52-3.55,0-6.87-1-9.69-2.74,3.29,5.14,9.05,8.54,15.61,8.54,10.23,0,18.52-8.29,18.52-18.52,0-6.68-3.53-12.53-8.83-15.79Z"/>
        <path class="cls-4" d="m168.37,29.13c0-9.03,7.32-16.35,16.35-16.35,5.28,0,9.97,2.5,12.96,6.38-2.82-4.9-8.11-8.2-14.18-8.2-9.03,0-16.35,7.32-16.35,16.35,0,3.75,1.26,7.21,3.39,9.97-1.38-2.4-2.17-5.18-2.17-8.15Z"/>
      </g>
      <path class="cls-4" d="m197.68,89.45c-4.57-3.04-9.87-4.58-15.7-3.69-.25.04-.49.09-.73.14-.25.03-.5.05-.74.09-8.29,1.26-14.11,6.87-17.67,14.17-.44.9-.93,1.78-1.46,2.64,6.46-6.78,15.13-11.56,25.11-13.08,3.8-.58,7.56-.65,11.21-.26Z"/>
      <path class="cls-4" d="m287.58,89.45c-4.57-3.04-9.87-4.58-15.71-3.69-.25.04-.49.09-.73.14-.25.03-.5.05-.74.09-8.29,1.26-14.11,6.87-17.67,14.17-.44.9-.93,1.78-1.46,2.64,6.46-6.78,15.13-11.56,25.11-13.08,3.8-.58,7.56-.65,11.21-.26Z"/>
      <path class="cls-3" d="m232.78,273.01h0c.1-39.72,7.4-77.66,20.95-112.45-19.09,43.41-56.98,107.85-119.8,129.61,0,.06,0,.12,0,.18h98.79c-.21-5.84-.12-11.67.06-17.34Z"/>
      <path class="cls-3" d="m233.66,302.77h-99.73c-3.87,0-7.01-3.14-7.01-7.01s3.14-7.01,7.01-7.01h99.73c3.87,0,7.01,3.14,7.01,7.01s-3.14,7.01-7.01,7.01Z"/>
    </g>
  </g>
</svg>