<?xml version="1.0" encoding="UTF-8"?>
<svg id="Capa_2" data-name="Capa 2" xmlns="http://www.w3.org/2000/svg" viewBox="0 0 308.79 821">
  <defs>
    <style>
      .cls-1 {
        fill: none;
        stroke: #000;
        stroke-miterlimit: 10;
      }

      .cls-2 {
        fill: #fff;
      }

      .cls-2, .cls-3, .cls-4, .cls-5, .cls-6 {
        stroke-width: 0px;
      }

      .cls-3 {
        fill: #383533;
      }

      .cls-4 {
        fill: #44403d;
      }

      .cls-5 {
        fill: #565656;
      }

      .cls-6 {
        fill: #3f3b38;
      }
    </style>
  </defs>
  <g id="Icon">
    <g>
      <g>
        <path class="cls-2" d="m.5,820.5v-30.8c0-7.78,2.98-15.19,8.1-20.8-5.03-5.48-8.1-12.79-8.1-20.79,0-19.49,15.18-28.23,26.26-34.62,1.08-.62,2.15-1.24,3.21-1.86,4.84-2.86,9.58-6.04,14.08-9.45,4.48-3.39,8.82-7.08,12.89-10.95,2.08-1.98,4.14-4.05,6.11-6.16.45-.48,3.06-3.43,5.33-6l2.99-3.39h166.07l2.99,3.39c2.27,2.58,4.88,5.52,5.33,6,1.97,2.11,4.03,4.18,6.1,6.15,4.07,3.88,8.41,7.56,12.89,10.95,4.5,3.41,9.24,6.59,14.08,9.45,1.06.62,2.13,1.24,3.21,1.86,11.08,6.38,26.26,15.13,26.26,34.62,0,8.01-3.07,15.31-8.1,20.79,5.03,5.48,8.1,12.79,8.1,20.79v30.8H.5Z"/>
        <path class="cls-1" d="m.5,820.5v-30.8c0-7.78,2.98-15.19,8.1-20.8-5.03-5.48-8.1-12.79-8.1-20.79,0-19.49,15.18-28.23,26.26-34.62,1.08-.62,2.15-1.24,3.21-1.86,4.84-2.86,9.58-6.04,14.08-9.45,4.48-3.39,8.82-7.08,12.89-10.95,2.08-1.98,4.14-4.05,6.11-6.16.45-.48,3.06-3.43,5.33-6l2.99-3.39h166.07l2.99,3.39c2.27,2.58,4.88,5.52,5.33,6,1.97,2.11,4.03,4.18,6.1,6.15,4.07,3.88,8.41,7.56,12.89,10.95,4.5,3.41,9.24,6.59,14.08,9.45,1.06.62,2.13,1.24,3.21,1.86,11.08,6.38,26.26,15.13,26.26,34.62,0,8.01-3.07,15.31-8.1,20.79,5.03,5.48,8.1,12.79,8.1,20.79v30.8H.5Z"/>
      </g>
      <g>
        <path class="cls-2" d="m71.39,695.54l-15.95-19.26-.44-.78c-2.76-4.89-2.71-10.71.12-15.55,2.83-4.85,7.88-7.74,13.49-7.74h1.06c18.87-43.95,30.63-91.06,34.96-140.12.27-4.78.41-9.1.41-13.2,0-18.57-2.23-37.1-6.64-55.06l-3.04-12.38h118.95l-3.04,12.38c-4.41,17.96-6.64,36.49-6.64,55.06,0,3.88.13,8.04.38,12.71,4.22,49.15,16,97.62,34.14,140.61h1.02c5.61,0,10.66,2.89,13.49,7.74,2.83,4.85,2.88,10.66.12,15.55l-.44.78-15.95,19.27H71.39Z"/>
        <path class="cls-1" d="m71.39,695.54l-15.95-19.26-.44-.78c-2.76-4.89-2.71-10.71.12-15.55,2.83-4.85,7.88-7.74,13.49-7.74h1.06c18.87-43.95,30.63-91.06,34.96-140.12.27-4.78.41-9.1.41-13.2,0-18.57-2.23-37.1-6.64-55.06l-3.04-12.38h118.95l-3.04,12.38c-4.41,17.96-6.64,36.49-6.64,55.06,0,3.88.13,8.04.38,12.71,4.22,49.15,16,97.62,34.14,140.61h1.02c5.61,0,10.66,2.89,13.49,7.74,2.83,4.85,2.88,10.66.12,15.55l-.44.78-15.95,19.27H71.39Z"/>
      </g>
      <g>
        <path class="cls-2" d="m75.18,451.43v-2.2c-8.48-3.87-14.41-12.45-14.41-22.33,0-8.19,4.04-15.46,10.23-19.92-.38-1.56-.58-3.18-.58-4.84,0-11.25,9.15-20.41,20.41-20.41h3.16c-1.04-2.11-1.63-4.49-1.63-7,0-3.64,1.23-7.02,3.31-9.71l-14.31-41.8c-22.42-65.48-26.01-75.99-26.63-77.81h0c-1.14-3.37-1.77-7.4-1.77-11.34,0-12.75,6.4-24.71,17.11-31.99,6.08-4.13,12.31-5.65,18.17-6.86,2.35-.48,4.72-.94,7.1-1.37-.17-1.05-.26-2.13-.26-3.22,0-11.25,9.15-20.41,20.41-20.41h.24l7.61-23.27-31.63,9.38v-75.53l31.63,9.38-12.69-38.78,44-20.89,44,20.89-12.64,38.61,31.08-9.2v75.52l-31.08-9.2,7.34,22.44,4.04.89c.29.06.58.14.87.22,8.99,1.94,15.45,10.25,15.45,19.96,0,1.09-.09,2.17-.26,3.22,2.38.43,4.75.89,7.1,1.37,5.86,1.2,12.09,2.72,18.17,6.86,10.72,7.28,17.11,19.24,17.11,31.99,0,3.94-.63,7.97-1.78,11.34h0c-.55,1.64-3.28,9.6-17.69,51.7l-20.44,59.7h.04l-2.91,8.56c1.93,2.64,3.05,5.89,3.05,9.35,0,2.51-.59,4.89-1.63,7,12.24.02,19.55,10.39,19.55,20.41,0,.86-.06,1.71-.16,2.55,8.72,4.19,13.33,13.41,13.33,22.21,0,11.4-8.08,21.47-19.21,23.94-1.78.39-3.57.59-5.32.59H75.18Z"/>
        <path class="cls-1" d="m75.18,451.43v-2.2c-8.48-3.87-14.41-12.45-14.41-22.33,0-8.19,4.04-15.46,10.23-19.92-.38-1.56-.58-3.18-.58-4.84,0-11.25,9.15-20.41,20.41-20.41h3.16c-1.04-2.11-1.63-4.49-1.63-7,0-3.64,1.23-7.02,3.31-9.71l-14.31-41.8c-22.42-65.48-26.01-75.99-26.63-77.81h0c-1.14-3.37-1.77-7.4-1.77-11.34,0-12.75,6.4-24.71,17.11-31.99,6.08-4.13,12.31-5.65,18.17-6.86,2.35-.48,4.72-.94,7.1-1.37-.17-1.05-.26-2.13-.26-3.22,0-11.25,9.15-20.41,20.41-20.41h.24l7.61-23.27-31.63,9.38v-75.53l31.63,9.38-12.69-38.78,44-20.89,44,20.89-12.64,38.61,31.08-9.2v75.52l-31.08-9.2,7.34,22.44,4.04.89c.29.06.58.14.87.22,8.99,1.94,15.45,10.25,15.45,19.96,0,1.09-.09,2.17-.26,3.22,2.38.43,4.75.89,7.1,1.37,5.86,1.2,12.09,2.72,18.17,6.86,10.72,7.28,17.11,19.24,17.11,31.99,0,3.94-.63,7.97-1.78,11.34h0c-.55,1.64-3.28,9.6-17.69,51.7l-20.44,59.7h.04l-2.91,8.56c1.93,2.64,3.05,5.89,3.05,9.35,0,2.51-.59,4.89-1.63,7,12.24.02,19.55,10.39,19.55,20.41,0,.86-.06,1.71-.16,2.55,8.72,4.19,13.33,13.41,13.33,22.21,0,11.4-8.08,21.47-19.21,23.94-1.78.39-3.57.59-5.32.59H75.18Z"/>
      </g>
      <g>
        <path class="cls-2" d="m154.07,51.58h-.06c-.6-.01-1.24-.05-1.92-.11-.19-.02-.38-.03-.56-.06-.78-.09-1.49-.2-2.18-.34-.14-.03-.31-.06-.48-.11-.55-.12-1.14-.27-1.72-.45-.2-.06-.37-.11-.53-.16-.7-.22-1.35-.46-1.97-.72-.18-.07-.36-.15-.54-.23-.54-.24-1.03-.48-1.51-.73-.19-.1-.37-.19-.54-.29-.56-.31-1.11-.64-1.68-1.02-.2-.13-.41-.27-.61-.42-.43-.3-.83-.6-1.23-.92-.25-.2-.45-.36-.65-.53-.42-.36-.83-.73-1.24-1.12-.2-.2-.41-.41-.62-.62-.35-.36-.67-.72-.99-1.09-.25-.29-.49-.58-.73-.89-.26-.34-.52-.68-.76-1.02-.16-.23-.31-.45-.46-.67-.06-.09-.13-.19-.19-.29h0c-2.65-4.13-4.04-8.89-4.04-13.78,0-14.08,11.46-25.54,25.54-25.54,4.72,0,9.34,1.31,13.38,3.8h0c.15.08.29.18.44.27.27.18.54.35.79.53.48.33.95.68,1.4,1.05.23.19.44.37.66.56.36.31.66.58.94.86.26.25.46.44.65.64.43.44.84.9,1.24,1.36.16.19.33.4.49.6.33.41.6.78.86,1.15.18.25.31.44.44.63.34.51.68,1.07,1,1.65.11.2.21.4.32.59.28.54.51,1.02.73,1.5.08.18.16.36.23.53.26.61.49,1.25.72,1.95.06.19.12.4.18.6.18.6.33,1.18.45,1.75.04.17.08.33.11.5.13.63.24,1.35.33,2.14.02.2.04.39.06.58.03.36.06.71.08,1.04l.04.16v1.11c0,14.08-11.46,25.54-25.54,25.54h-.33Z"/>
        <path class="cls-1" d="m154.07,51.58h-.06c-.6-.01-1.24-.05-1.92-.11-.19-.02-.38-.03-.56-.06-.78-.09-1.49-.2-2.18-.34-.14-.03-.31-.06-.48-.11-.55-.12-1.14-.27-1.72-.45-.2-.06-.37-.11-.53-.16-.7-.22-1.35-.46-1.97-.72-.18-.07-.36-.15-.54-.23-.54-.24-1.03-.48-1.51-.73-.19-.1-.37-.19-.54-.29-.56-.31-1.11-.64-1.68-1.02-.2-.13-.41-.27-.61-.42-.43-.3-.83-.6-1.23-.92-.25-.2-.45-.36-.65-.53-.42-.36-.83-.73-1.24-1.12-.2-.2-.41-.41-.62-.62-.35-.36-.67-.72-.99-1.09-.25-.29-.49-.58-.73-.89-.26-.34-.52-.68-.76-1.02-.16-.23-.31-.45-.46-.67-.06-.09-.13-.19-.19-.29h0c-2.65-4.13-4.04-8.89-4.04-13.78,0-14.08,11.46-25.54,25.54-25.54,4.72,0,9.34,1.31,13.38,3.8h0c.15.08.29.18.44.27.27.18.54.35.79.53.48.33.95.68,1.4,1.05.23.19.44.37.66.56.36.31.66.58.94.86.26.25.46.44.65.64.43.44.84.9,1.24,1.36.16.19.33.4.49.6.33.41.6.78.86,1.15.18.25.31.44.44.63.34.51.68,1.07,1,1.65.11.2.21.4.32.59.28.54.51,1.02.73,1.5.08.18.16.36.23.53.26.61.49,1.25.72,1.95.06.19.12.4.18.6.18.6.33,1.18.45,1.75.04.17.08.33.11.5.13.63.24,1.35.33,2.14.02.2.04.39.06.58.03.36.06.71.08,1.04l.04.16v1.11c0,14.08-11.46,25.54-25.54,25.54h-.33Z"/>
      </g>
    </g>
    <g>
      <g>
        <path class="cls-3" d="m240.22,661.98H68.66c-4.3,0-7.01,4.64-4.9,8.39l12.38,14.95h156.6l12.38-14.96c2.11-3.75-.6-8.38-4.9-8.38Z"/>
        <path class="cls-3" d="m277.54,768.68H31.34c-3.81,0-7.38,1.02-10.45,2.81-6.19,3.6-10.35,10.31-10.35,17.99h287.79c0-11.48-9.31-20.8-20.8-20.8Z"/>
        <polygon class="cls-4" points="195.21 789.48 10.54 789.48 10.54 810.27 195.21 810.27 298.33 810.27 298.33 789.48 195.21 789.48"/>
        <path class="cls-4" d="m273.77,720.01c-5.19-3.07-10.21-6.44-15.03-10.08-4.8-3.63-9.39-7.53-13.75-11.68-2.23-2.13-4.41-4.32-6.51-6.57-.82-.88-5.53-6.23-5.53-6.23H75.92s-4.71,5.35-5.53,6.23c-2.11,2.25-4.28,4.44-6.51,6.57-4.36,4.15-8.95,8.05-13.75,11.68-4.81,3.64-9.83,7.01-15.03,10.08-11.28,6.67-24.56,12.7-24.56,27.87,0,11.48,9.31,20.8,20.8,20.8h246.2c11.48,0,20.8-9.31,20.8-20.8,0-15.17-13.28-21.21-24.56-27.87Z"/>
        <path class="cls-5" d="m21.42,747.12c0-6.93,3.84-12.96,9.5-16.09-8.13.31-14.63,6.98-14.63,15.19,0,7.08,4.85,13.02,11.4,14.71-3.84-3.37-6.27-8.3-6.27-13.81Z"/>
        <path class="cls-3" d="m223.25,412.15H85.35c-8.02,0-14.53,6.51-14.53,14.53s6.44,14.46,14.41,14.52h0s137.49,0,137.49,0c1.09,0,2.14-.13,3.16-.35,6.51-1.44,11.37-7.24,11.37-14.18s-4.44-14.53-13.99-14.53Z"/>
        <path class="cls-5" d="m78.89,427.49c0-4.94,2.74-9.24,6.78-11.48-5.8.22-10.43,4.98-10.43,10.83,0,5.05,3.46,9.28,8.13,10.49-2.74-2.4-4.47-5.92-4.47-9.84Z"/>
        <path class="cls-4" d="m214.48,391.51h-123.61c-5.75,0-10.41,4.66-10.41,10.41s4.66,10.41,10.41,10.41h123.61v-.05c.49-.04.98-.1,1.45-.21,4.66-1.03,8.14-5.18,8.14-10.15s-3.45-10.41-9.6-10.41Z"/>
      </g>
      <path class="cls-4" d="m76.14,662.23h156.6c-20.11-45.52-33.12-97.15-37.65-150.16-.25-4.44-.41-8.91-.41-13.41,0-19.8,2.41-39.03,6.93-57.44h-93.45c4.51,18.41,6.93,37.64,6.93,57.44,0,4.68-.17,9.31-.43,13.92-4.66,52.99-17.97,103.76-38.51,149.65Z"/>
      <path class="cls-4" d="m245.88,233.85c0-9.52-4.9-18.39-12.74-23.72-4.5-3.06-9.3-4.25-14.56-5.33-6.36-1.31-12.75-2.41-19.18-3.32-11.99-1.7-24.07-2.7-36.18-3.02l-4.74-.11c-1.35,0-2.7,0-4.05.03-1.35-.02-2.7-.03-4.05-.03l-4.74.11c-12.1.32-24.19,1.33-36.18,3.02-6.43.91-12.82,2.02-19.18,3.32-5.26,1.08-10.06,2.27-14.56,5.33-7.84,5.33-12.73,14.2-12.73,23.72,0,2.68.41,5.66,1.25,8.13,0,0,29.67,86.66,43.83,128.03.93,3.39,1.43,6.95,1.43,10.63s-.52,7.41-1.5,10.87l93.43.3c-1.03-3.54-1.58-7.29-1.58-11.17,0-4.58.77-9.95,2.19-14.04h-.07c14.56-42.53,42.66-124.61,42.66-124.62.84-2.47,1.25-5.45,1.25-8.13Z"/>
      <path class="cls-3" d="m200.28,380.39h-92c-3.25,0-5.88-2.63-5.88-5.88s2.63-5.88,5.88-5.88h92c3.25,0,5.88,2.63,5.88,5.88s-2.63,5.88-5.88,5.88Z"/>
      <path class="cls-5" d="m135.31,207.84c-7.35.45-14.69,1.17-21.98,2.21-5.64.8-11.26,1.77-16.84,2.92-4.62.95-8.84,1.99-12.79,4.68-6.88,4.68-11.18,12.47-11.18,20.83,0,2.36.36,4.97,1.09,7.14,0,0,3.15,9.21,7.79,22.75,2.97-29.94,25.07-54.23,53.91-60.52Z"/>
      <path class="cls-4" d="m194.16,180h-78.64c-5.75,0-10.41,4.66-10.41,10.41s4.66,10.41,10.41,10.41h78.64v-.05c.49-.04.98-.1,1.45-.21,4.66-1.03,8.14-5.18,8.14-10.15s-3.45-10.41-9.59-10.41Z"/>
      <path class="cls-6" d="m195.29,180s-10.96,13.34-51.51,18.69l-17.74,1.65c-.24.01-.47.03-.7.04h.25l-2.73.25h70.17c.78,0,1.54-.09,2.27-.25,4.68-1.04,8.18-5.2,8.18-10.19s-3.5-9.15-8.18-10.19Z"/>
      <g>
        <polygon class="cls-4" points="170.62 104.79 186.44 56.43 154.69 41.36 122.94 56.43 138.81 104.97 101.75 93.98 101.75 115.71 101.75 120.98 101.75 142.71 138.81 131.72 122.94 180.26 154.69 195.33 186.44 180.26 170.62 131.9 207.13 142.71 207.13 120.98 207.13 115.71 207.13 93.98 170.62 104.79"/>
        <circle class="cls-4" cx="154.44" cy="25.82" r="15.54" transform="translate(104.22 174.13) rotate(-80.78)"/>
        <g>
          <path class="cls-3" d="m162.57,12.58c1.55,2.42,2.44,5.29,2.44,8.37,0,8.58-6.96,15.54-15.54,15.54-2.98,0-5.76-.84-8.13-2.29,2.76,4.31,7.59,7.17,13.09,7.17,8.58,0,15.54-6.96,15.54-15.54,0-5.6-2.96-10.51-7.41-13.24Z"/>
          <path class="cls-5" d="m141.63,27.26c0-7.57,6.14-13.71,13.71-13.71,4.43,0,8.36,2.1,10.87,5.35-2.37-4.11-6.81-6.88-11.89-6.88-7.57,0-13.71,6.14-13.71,13.71,0,3.15,1.06,6.05,2.84,8.36-1.16-2.01-1.82-4.35-1.82-6.84Z"/>
        </g>
        <path class="cls-6" d="m180.35,161.63s-33.65,17.14-57.41,18.63h63.51l-6.1-18.63Z"/>
      </g>
      <path class="cls-3" d="m234.21,272.26c-9.53,23.91-42.19,81.55-125.93,97.79h92.79c.28-1.21.6-2.38.98-3.45h-.07c2.39-6.97,5.14-15.02,8.07-23.58h-.07c6.61-19.3,15.78-46.11,24.23-70.77Z"/>
    </g>
  </g>
</svg>